<svg width="198" height="198" viewBox="0 0 198 198" fill="none" xmlns="http://www.w3.org/2000/svg">
<path d="M98.9798 0H98.53C44.1134 0 0 44.1264 0 98.559V99.0089C0 153.441 44.1134 197.568 98.53 197.568H98.9798C153.396 197.568 197.51 153.441 197.51 99.0089V98.559C197.51 44.1264 153.396 0 98.9798 0Z" fill="#FF0000"/>
<path fill-rule="evenodd" clip-rule="evenodd" d="M89.7418 125.796C89.6242 126.204 89.5135 126.551 89.4235 126.897C84.1991 147.371 83.6179 151.919 78.2482 161.429C75.6879 165.949 72.8023 170.234 69.6124 174.331C69.2525 174.795 68.9134 175.391 68.1938 175.245C67.4049 175.079 67.3427 174.366 67.2596 173.736C66.4016 167.514 65.9241 161.277 66.1317 154.992C66.4016 146.811 67.4119 144 77.9575 99.6457C78.1098 98.9674 77.9368 98.4067 77.7153 97.7975C75.1896 90.9865 74.6914 84.0717 76.8988 77.0669C81.6734 61.9359 98.8205 60.78 101.817 73.2599C103.664 80.9777 98.779 91.0834 95.0285 106.021C91.9215 118.341 106.425 127.104 118.818 118.106C130.25 109.814 134.685 89.9344 133.841 75.8417C132.18 47.7463 101.381 41.6759 81.8464 50.7227C59.4473 61.0845 54.3544 88.8547 64.471 101.549C65.7512 103.162 68.1661 104.152 67.744 105.785C67.0936 108.326 66.5192 110.887 65.8134 113.413C65.2875 115.296 62.2913 115.981 60.3884 115.206C56.6586 113.697 53.5517 111.323 51.0329 108.194C42.4455 97.5553 39.989 76.5131 51.3443 58.6965C63.9243 38.9626 87.3268 30.9749 108.695 33.3975C134.215 36.2977 150.345 53.7406 153.362 73.5299C154.739 82.542 153.749 104.768 141.1 120.48C126.548 138.532 102.958 139.73 92.0737 128.648C91.2365 127.796 90.5653 126.807 89.7418 125.789V125.796Z" fill="white"/>
</svg>
