<svg width="198" height="198" viewBox="0 0 198 198" fill="none" xmlns="http://www.w3.org/2000/svg">
<path d="M98.7583 197.575C153.301 197.575 197.517 153.346 197.517 98.7874C197.517 44.2286 153.301 0 98.7583 0C44.2156 0 0 44.2286 0 98.7874C0 153.346 44.2156 197.575 98.7583 197.575Z" fill="#383D38"/>
<path d="M130.721 92.9593C148.428 100.414 157.14 118.258 151.362 136.726C147.425 149.33 136.208 159.512 124.188 164.115C109.034 169.936 88.6831 169.562 73.7365 163.36C43.4212 150.797 36.3493 115.912 39.3594 86.8889C41.4561 66.5735 49.912 46.7703 68.5814 36.5884C82.6492 28.8845 100.654 27.7908 116.058 31.0163C132.049 34.3665 145.031 43.8286 152.898 58.1566C155.327 62.5519 157.292 67.411 158.759 72.8169C158.801 73.0245 158.718 73.2391 158.51 73.2807L147.376 76.2155C147.169 76.257 146.954 76.1324 146.913 75.9663C145.238 69.5983 142.602 63.9432 138.955 59.008C127.565 43.5102 106.674 39.364 88.6694 42.5896C67.4396 46.4035 55.7176 61.3129 52.2854 81.7875C49.4829 98.4136 50.3617 117.677 58.0219 133.009C64.4711 145.911 76.1516 153.151 90.2194 155.165C97.7965 156.21 105.208 156.086 112.453 154.743C122.839 152.819 133.973 145.945 138.491 136.103C141.425 129.735 141.716 121.657 138.491 115.33C136.651 111.731 133.883 108.838 130.243 106.664C130.077 106.54 129.821 106.623 129.738 106.789C129.696 106.83 129.696 106.872 129.696 106.913C129.274 110.014 128.569 113.067 127.517 116.043C126.008 120.273 123.835 123.92 120.943 126.89C111.228 136.899 94.3159 137.778 82.8846 130.572C73.7574 124.792 70.3252 112.984 74.6777 103.266C79.1963 93.2153 90.254 88.8616 100.758 88.3563C106.702 88.0656 112.19 88.3147 117.255 89.0277C117.462 89.0692 117.628 88.9031 117.677 88.6954V88.5708C117.213 86.2659 116.673 84.3832 116.002 82.9158C112.487 75.1703 104.571 73.1145 96.6617 74.1182C91.5964 74.748 87.6175 77.1361 84.642 81.2407C84.5175 81.4068 84.3099 81.4483 84.1369 81.3237L74.6777 74.8727C74.5116 74.7481 74.4702 74.5404 74.5947 74.3258C79.66 67.2033 86.5242 63.0572 95.2362 61.9289C102.44 60.9668 110.515 62.0951 116.798 65.909C126.216 71.6886 129.565 82.0782 130.402 92.5854C130.485 92.7931 130.568 92.9177 130.693 92.9593H130.721ZM85.5416 109.378C83.6595 115.704 88.012 120.688 93.9146 122.19C102.204 124.287 111.415 122.439 115.352 113.939C116.902 110.589 117.822 106.65 118.113 102.172C118.113 101.964 117.988 101.798 117.822 101.798C111.671 100.587 105.346 100.331 98.8967 100.961C93.6654 101.508 87.1747 103.896 85.5416 109.378Z" fill="white"/>
</svg>
