<svg width="27" height="31" viewBox="0 0 27 31" fill="none" xmlns="http://www.w3.org/2000/svg">
<path d="M6.93058 0.0797694C7.71189 -0.104191 8.53475 0.0328613 9.21379 0.461605C10.2631 1.12418 10.5881 2.03018 10.8378 3.15887C14.549 3.5532 16.2553 5.66153 17.747 8.84442C19.3925 12.3534 21.0343 14.925 23.6122 17.8161L25.2079 19.0954C26.1956 19.8863 26.2434 20.4249 26.4599 21.6921C25.0858 23.8109 18.5436 26.0552 16.0107 26.8014C15.8808 27.9754 15.4983 28.8952 14.5468 29.6501C13.6799 30.3328 12.5758 30.6396 11.4814 30.5016C10.2128 30.3534 9.3309 29.704 8.56437 28.7214L8.53605 28.6862C6.75741 28.9827 0.56317 30.4872 0.0546055 27.9675C-0.0264296 27.5663 -0.0338727 26.6295 0.151285 26.2282C0.467274 25.5014 0.716476 24.8636 0.989176 24.1188C1.9354 21.1255 1.83494 17.5244 1.57511 14.4128C1.26191 10.6565 1.42622 7.24737 4.80656 4.90692C4.73197 4.66641 4.66525 4.42366 4.60539 4.17938C4.16682 2.32967 5.00032 0.521345 6.93058 0.0797694ZM8.95695 3.24676C8.52125 2.23794 8.32337 1.87215 7.12589 1.98114C6.63665 2.374 6.05861 3.09687 6.46769 3.71356C6.90806 3.96011 7.3504 3.69033 7.788 3.51532L8.95695 3.24676Z" fill="#C5934F"/>
<path d="M23.6127 17.8159L25.2076 19.0957C26.1953 19.8866 26.2432 20.4243 26.4598 21.6916C25.086 23.8105 18.5434 26.0556 16.0106 26.8018C15.8807 27.9759 15.4983 28.8955 14.5465 29.6504C13.6795 30.3331 12.5757 30.6397 11.4811 30.5017C10.2124 30.3534 9.33067 29.704 8.56409 28.7212L8.53646 28.6862C6.75822 28.9825 0.56296 30.4877 0.0543663 27.9677C-0.0267138 27.5667 -0.0340802 26.6296 0.151114 26.2283C0.467142 25.5014 0.71683 24.8638 0.989554 24.1189C1.17014 24.0953 1.43825 24.015 1.59489 23.9295C6.78309 21.0886 12.5241 19.4783 18.302 18.3619C19.5818 18.1147 21.0772 17.9976 22.3855 17.8933C22.7706 17.8626 23.2516 17.9527 23.6127 17.8159Z" fill="#A98049"/>
<path d="M23.6128 17.8159L25.2076 19.0957C24.0136 19.1829 22.9982 19.1461 21.6991 19.2793C15.7406 19.9267 9.91943 21.5068 4.44928 23.9617C2.98339 24.6045 1.38759 25.7002 0.151123 26.2283C0.467151 25.5014 0.716839 24.8638 0.989563 24.1189C1.17015 24.0953 1.43826 24.015 1.59489 23.9295C6.7831 21.0886 12.5241 19.4783 18.302 18.3619C19.5818 18.1147 21.0772 17.9976 22.3855 17.8933C22.7706 17.8626 23.2516 17.9527 23.6128 17.8159Z" fill="#CBA677"/>
<path d="M23.0671 21.2992C23.7628 21.3401 24.0327 21.38 24.7118 21.5392C23.2523 23.0068 18.0162 24.8949 15.9468 25.5579C15.5083 24.4061 15.1452 23.8879 14.3013 23.0502C17.1409 22.2921 20.1261 21.5417 23.0671 21.2992Z" fill="#906B41"/>
<path d="M8.31785 24.957C8.34365 24.9946 8.37314 25.0385 8.40815 25.0886C8.22296 25.9168 8.13727 26.7546 8.15385 27.569C6.28348 27.8626 4.13394 28.2259 2.25619 28.117L2.10693 27.947C2.27002 27.1411 7.33383 25.3165 8.31785 24.957Z" fill="#906B41"/>
<path d="M6.99305 5.95483C9.34069 6.57383 6.18685 8.32574 5.71695 9.33105C5.06555 10.7256 5.42489 11.904 5.12729 13.3347C5.06648 13.6266 4.64449 13.7472 4.40954 13.8469C3.93412 13.7826 3.56188 13.5619 3.47343 13.0507C3.00998 10.3808 4.17367 6.80514 6.99305 5.95483Z" fill="#CBA677"/>
</svg>
