<svg width="37" height="29" viewBox="0 0 37 29" fill="none" xmlns="http://www.w3.org/2000/svg">
<path d="M3.9555 9.88755C4.10978 9.70391 4.33973 9.45332 4.53312 9.31796C8.80198 6.32985 13.1171 3.3901 17.4494 0.4948C17.7564 0.289666 18.1705 0.0980129 18.5242 0C20.0463 0.288482 26.4637 5.37659 28.168 6.316C28.9732 6.75988 32.4695 9.18124 33.0682 9.75601C33.1453 10.7665 33.0962 12.181 33.1511 13.2879L33.0341 13.3695C33.022 14.0551 33.1586 14.6159 32.5536 15.0143C32.5678 15.4884 32.7595 17.7996 32.7208 18.0938C32.5901 18.6205 32.6129 19.9632 32.6098 20.5573C32.602 22.0728 32.6048 23.5883 32.6183 25.1037C32.6255 25.9422 32.6682 27.2972 32.5846 28.1175C29.956 28.141 27.2447 28.0795 24.6376 28.1314L22.9838 28.1398C20.0549 28.0739 16.9389 28.1264 13.9957 28.1261L12.3569 28.1312C9.74182 28.0851 7.11086 28.162 4.47764 28.1004C4.31772 26.7594 4.57824 18.7237 4.28325 18.2031C4.36893 17.5014 4.45453 15.6605 4.27388 15.0097C3.84835 14.4786 4.0874 14.3225 3.79786 13.7151C3.77958 13.5494 3.82042 13.4136 3.83079 13.2513C3.90265 12.1313 3.88783 11.0095 3.9555 9.88755Z" fill="#E4C494"/>
<path d="M3.9555 9.88755C4.10978 9.70391 4.33973 9.45332 4.53312 9.31796C8.80198 6.32985 13.1171 3.3901 17.4494 0.4948C17.7564 0.289666 18.1705 0.0980129 18.5242 0C20.0463 0.288482 26.4637 5.37659 28.168 6.316C28.9732 6.75988 32.4695 9.18124 33.0682 9.75602C33.1453 10.7665 33.0962 12.181 33.1511 13.2879L33.0341 13.3695C33.022 14.0551 33.1586 14.6159 32.5536 15.0143C32.198 14.7543 29.8625 13.4865 29.3779 13.2196C25.7807 11.2383 22.1369 9.29501 18.5324 7.32783C17.147 7.92529 15.2604 9.09816 13.8665 9.82962C11.9191 10.8515 10.0037 11.9516 8.05025 12.9717C6.81177 13.6185 5.59759 14.4976 4.27388 15.0097C3.84835 14.4786 4.0874 14.3225 3.79786 13.7151C3.77958 13.5494 3.82042 13.4136 3.83079 13.2513C3.90265 12.1313 3.88783 11.0095 3.9555 9.88755Z" fill="#E5DDBF"/>
<path d="M13.9961 28.126L13.9819 22.829C13.98 21.6875 13.9066 19.8284 14.157 18.7887C14.3593 17.9112 14.8014 17.1075 15.4341 16.4674C17.1752 14.7258 20.0142 14.8535 21.7073 16.5969C22.2473 17.1585 22.6269 17.8549 22.8066 18.6135C23.0905 19.7988 22.985 26.5184 22.9842 28.1397C20.0553 28.0738 16.9393 28.1263 13.9961 28.126Z" fill="#A98049"/>
<path d="M12.357 28.1311C12.3601 26.1847 12.181 19.7077 12.6045 18.0906C12.8651 17.0942 13.3824 16.1839 14.1047 15.4507C15.2896 14.2603 16.9044 13.5996 18.5828 13.6184C20.1851 13.6292 21.612 14.1814 22.7438 15.3282C24.9026 17.5156 24.6477 20.1915 24.6382 23.0019C24.6203 24.7117 24.6202 26.4216 24.6377 28.1314L22.9839 28.1397C22.9847 26.5184 23.0902 19.7988 22.8063 18.6134C22.6266 17.8548 22.247 17.1585 21.7071 16.5969C20.0139 14.8535 17.175 14.7258 15.4338 16.4674C14.8012 17.1075 14.359 17.9112 14.1567 18.7887C13.9063 19.8284 13.9797 21.6875 13.9816 22.829L13.9958 28.126L12.357 28.1311Z" fill="#E5DDBF"/>
<path d="M32.5535 15.0143C33.1585 14.6159 33.0218 14.0551 33.0339 13.3695L33.151 13.288C33.8973 17.0237 34.8338 20.7721 35.5968 24.509C35.7808 25.4106 36.8061 24.7802 36.9942 25.4879C37.0566 26.3144 36.6004 28.0837 35.7851 28.4259C35.4288 28.5756 35.0272 28.1345 34.9278 27.7941C34.012 24.6583 33.6223 21.2255 32.7207 18.0938C32.7593 17.7997 32.5677 15.4884 32.5535 15.0143Z" fill="#CBA677"/>
<path d="M3.79797 13.7151C4.08751 14.3225 3.84846 14.4786 4.27399 15.0097C4.45464 15.6605 4.36904 17.5014 4.28336 18.2031L2.72448 25.2904C2.52276 26.2001 2.40676 28.1227 1.54102 28.4708C0.468805 28.5357 0.15628 26.555 0.00814486 25.7706C-0.0387653 25.5221 0.126043 25.3654 0.269812 25.2049C0.621825 25.031 0.870448 25.0601 1.26268 25.0637C1.58907 24.0482 1.92194 22.3886 2.1641 21.3061L3.79797 13.7151Z" fill="#CBA677"/>
</svg>
