<svg width="33" height="35" viewBox="0 0 33 35" fill="none" xmlns="http://www.w3.org/2000/svg">
<path d="M16.4255 1.48717C19.4158 -0.431197 22.8339 -0.796228 25.2296 2.32047C28.633 2.60252 30.0457 4.55795 29.4227 7.88995C29.8554 8.45632 29.7592 10.4885 29.6611 11.1522C29.6572 11.1837 29.6513 11.2151 29.6444 11.2462C30.9748 13.2639 32.4425 15.2882 32.7456 17.7485C33.2303 21.6734 32.3326 25.0907 28.4417 26.8175C27.8942 30.1905 26.5239 31.2886 23.62 32.5727C23.3719 33.0782 22.283 33.3844 22.283 33.3844C21.6852 33.7243 20.5806 33.9976 20.5806 33.9976C19.4947 34.4387 18.833 34.6084 18.833 34.6084L16.4577 34.829C14.2772 34.8009 13.79 34.3968 12.9721 34.2598C10.8071 33.8972 9.36768 32.4957 9.36768 32.4957C6.44311 31.2904 5.0186 30.0702 4.51237 26.8006C4.21805 26.69 3.92765 26.5676 3.64216 26.4337C-0.404755 24.4952 -0.881555 18.0219 1.23854 14.571C1.92529 13.4524 2.75332 12.3311 3.3194 11.164C3.10062 10.6093 3.11042 8.33303 3.5107 7.8764C3.03292 4.7397 4.04048 2.84793 7.38985 2.37214C7.44381 2.36448 7.49678 2.3581 7.55172 2.35279C10.0799 -0.303854 13.4735 -0.874213 16.4255 1.48717Z" fill="#7A4E36"/>
<path d="M16.4256 1.48717C19.4159 -0.431197 22.8339 -0.796228 25.2297 2.32047C28.633 2.60252 30.0458 4.55795 29.4228 7.88996C29.8554 8.45633 29.7593 10.4885 29.6612 11.1522C29.6573 11.1837 29.6514 11.2151 29.6445 11.2462C27.9237 11.2174 26.2029 11.2067 24.4811 11.2138C23.8385 11.2142 22.3434 11.1838 21.7636 11.2652C21.3819 11.1802 17.4047 11.1925 17.1555 11.2885C16.25 11.2002 12.0265 10.9801 11.4457 11.3284C11.4378 11.3329 11.431 11.338 11.4231 11.3428C11.2956 11.2899 10.8266 11.2582 10.6628 11.2424C10.3066 11.1783 8.79776 11.2089 8.35726 11.2085C6.66393 11.2069 5.01476 11.2405 3.31947 11.164C3.10069 10.6093 3.11049 8.33303 3.51077 7.8764C3.03299 4.7397 4.04055 2.84793 7.38993 2.37214C7.44388 2.36448 7.49685 2.3581 7.55179 2.35279C10.08 -0.303854 13.4735 -0.874213 16.4256 1.48717Z" fill="#7A4E36"/>
<path d="M3.51077 7.87647C4.5301 7.97304 18.9744 7.9476 19.1863 7.87873C19.2324 7.8636 19.2942 7.81291 19.3374 7.78658C19.3698 7.51189 19.3757 7.33918 19.3766 7.06381L19.4924 6.97205C19.8564 7.27876 20.2233 7.58125 20.5941 7.87961C23.505 7.88571 26.5198 7.93306 29.4228 7.89003C29.8554 8.4564 29.7593 10.4886 29.6612 11.1523C29.6573 11.1838 29.6514 11.2152 29.6445 11.2463C27.9237 11.2175 26.2029 11.2068 24.4811 11.2139C23.8385 11.2143 22.3434 11.1839 21.7636 11.2653C21.3819 11.1803 17.4047 11.1926 17.1555 11.2885C16.25 11.2002 12.0265 10.9802 11.4457 11.3284C11.4378 11.3329 11.431 11.3381 11.4231 11.3429C11.2956 11.29 10.8266 11.2583 10.6628 11.2425C10.3066 11.1784 8.79776 11.209 8.35726 11.2086C6.66393 11.207 5.01476 11.2406 3.31947 11.1641C3.10069 10.6094 3.11049 8.3331 3.51077 7.87647Z" fill="#906B41"/>
<path d="M11.423 11.3429C11.4309 11.3381 11.4378 11.333 11.4456 11.3284C12.0264 10.9802 16.2499 11.2002 17.1554 11.2886C17.4046 11.1926 21.3819 11.1803 21.7635 11.2653C22.9948 12.7518 23.6962 13.3181 25.47 14.1097L25.4533 21.293C25.0226 21.8169 23.759 23.6372 23.2724 23.798C22.5719 23.3423 23.7629 20.3968 20.5038 19.8317C19.9171 19.892 18.4495 19.85 17.8314 19.8481C17.7627 19.9238 17.6921 19.9976 17.6185 20.0695C16.7503 20.9187 16.0174 20.693 15.2433 19.8901C14.2927 19.8515 13.2635 19.8584 12.306 19.8468C9.34513 20.3645 10.1682 23.1561 9.68556 23.7121C9.25094 23.6264 7.90394 21.8172 7.50759 21.3574C7.34179 19.6426 7.42714 16.0118 7.40751 14.0839C8.92915 13.1809 9.54527 12.6228 10.6627 11.2425C10.8265 11.2583 11.2955 11.29 11.423 11.3429Z" fill="#F7A976"/>
<path d="M11.4231 11.3429C11.431 11.3381 11.4379 11.333 11.4457 11.3284C12.0265 10.9802 16.25 11.2002 17.1555 11.2886C15.6457 12.6113 13.9906 13.4062 11.9559 13.3081C10.4058 13.2334 10.6952 12.2173 11.4231 11.3429Z" fill="#7A4E36"/>
<path d="M15.1022 19.7803C15.1032 19.0683 15.0649 17.8384 15.6575 17.4251C17.4764 16.155 17.8649 18.4105 17.7776 19.5351C17.7727 19.6114 17.7629 19.6872 17.7491 19.7624C18.2946 19.7615 20.0664 19.7312 20.504 19.8315C19.9173 19.8918 18.4496 19.8499 17.8315 19.8479C17.7629 19.9237 17.6922 19.9975 17.6187 20.0694C16.7504 20.9186 16.0175 20.6929 15.2435 19.89C14.2928 19.8514 13.2637 19.8582 12.3062 19.8466C13.0429 19.7225 14.3115 19.7671 15.1022 19.7803Z" fill="#E38958"/>
<path d="M19.5827 14.0779C20.3656 14.1158 21.0004 14.3845 21.1799 15.1944C21.4762 16.5314 21.5527 18.1778 20.0615 18.6788C19.4189 18.6337 18.8067 18.437 18.6105 17.7827C18.1808 16.3501 18.0699 14.7463 19.5827 14.0779Z" fill="#472C17"/>
<path d="M12.7278 14.075C14.7047 14.1343 14.69 16.1869 14.2956 17.6708C14.1504 18.2201 13.7805 18.4228 13.3008 18.6566C11.2974 18.7968 11.3926 16.4227 11.7438 15.0629C11.8861 14.5132 12.2647 14.3176 12.7278 14.075Z" fill="#472C17"/>
<path d="M12.582 23.6214C12.3701 23.1957 11.9619 22.5367 12.1837 22.0799C13.3972 21.6229 18.9275 22.0621 20.5247 22.0031C20.9839 21.9862 20.4197 23.3262 20.3334 23.5089C20.301 23.5754 20.2667 23.6405 20.2304 23.704C20.7759 24.0939 21.2213 24.3856 21.6814 24.8801C21.5646 26.1398 21.4037 26.7999 20.4531 27.701C20.0077 28.1232 18.9167 28.268 18.7068 27.8183C18.0014 26.3057 16.9095 27.1186 15.1543 26.9084C14.549 26.9936 14.3126 27.5993 14.032 28.088C12.6379 27.9294 11.2752 27.292 11.1849 25.5958C11.1388 24.7318 11.9796 24.1606 12.582 23.6214Z" fill="#F7A976"/>
<path d="M12.5818 23.6214C12.3699 23.1957 11.914 22.6349 12.1835 22.0798C12.4529 21.5247 20.2302 21.8284 20.5245 22.0031C20.9837 21.9862 20.4195 23.3262 20.3332 23.5089C20.3008 23.5754 20.2665 23.6404 20.2302 23.704C18.9018 25.3975 16.9201 26.2532 14.8255 25.4421C13.7129 24.9268 13.2813 24.592 12.5818 23.6214Z" fill="white"/>
<path d="M4.86779 14.8516L5.07676 14.8654C5.30535 15.2813 5.3289 20.4657 5.12091 20.9746C4.79128 21.083 4.01622 20.604 3.72877 20.4285C3.35498 20.1141 3.05576 19.7202 2.85268 19.2753C2.50146 18.499 2.473 17.6146 2.77419 16.8174C3.1882 15.7442 3.88574 15.2829 4.86779 14.8516Z" fill="#F7A976"/>
<path d="M27.7038 14.8441C30.2615 15.5809 31.0532 18.0934 29.3354 20.1372C28.7634 20.5912 28.42 20.77 27.7078 20.9244C27.6273 18.9133 27.6656 16.855 27.7038 14.8441Z" fill="#F7A976"/>
</svg>
