<svg width="35" height="29" viewBox="0 0 35 29" fill="none" xmlns="http://www.w3.org/2000/svg">
<path d="M3.34037 0.109531C4.27666 -0.0084745 6.19586 0.040979 7.20715 0.0403332L14.2248 0.0395955L21.7146 0.0365503C23.4376 0.0369194 26.3389 -0.252698 27.6961 0.792562C28.5106 1.42051 29.0395 2.34841 29.1666 3.36959C29.2937 4.43303 29.1159 10.4317 29.3767 10.8102C29.9737 10.1889 30.9485 8.96735 31.845 8.88043C32.2781 8.83854 32.9184 9.3579 32.7986 9.83167C32.4015 11.4128 30.3469 12.9337 29.2532 14.127L29.232 24.2275C30.7642 24.2188 32.3435 24.1816 33.8656 24.2192C35.9469 24.2705 34.54 27.0262 33.697 27.7644C32.5701 28.7513 31.798 28.8665 30.3985 28.8422C29.5066 28.9653 25.2959 28.889 24.2299 28.8885L11.2713 28.9046C9.88289 28.9061 8.43745 28.9048 7.39097 27.8431C6.12962 26.5635 6.15265 25.3025 6.17744 23.6393C6.19872 22.2059 6.20775 20.7474 6.20729 19.3091L6.19273 4.66323C4.83316 4.63158 1.84361 4.76167 0.58816 4.57622C-0.89017 4.23291 0.562083 0.245067 3.34037 0.109531Z" fill="#E9D4B5"/>
<path d="M29.2322 24.2275C30.7644 24.2189 32.3437 24.1817 33.8657 24.2192C35.9471 24.2706 34.5402 27.0263 33.6971 27.7645C32.5703 28.7514 31.7982 28.8666 30.3986 28.8423C29.4017 28.7213 25.5274 28.8047 24.314 28.8053L10.8679 28.8006C12.9637 27.7039 13.2797 26.4891 13.3156 24.2805C14.5466 24.153 17.4332 24.2432 18.7729 24.2444L29.2322 24.2275Z" fill="#CBA677"/>
<path d="M29.3768 10.8102C29.9738 10.1889 30.9486 8.96734 31.8451 8.88043C32.2782 8.83854 32.9185 9.3579 32.7987 9.83167C32.4016 11.4128 30.347 12.9337 29.2533 14.127C28.4729 14.9569 26.7638 16.8527 25.8728 17.4239C25.168 17.0592 21.6631 14.0259 21.8889 13.2694C22.6646 10.672 24.9717 13.6516 25.7964 14.5495C26.9002 13.3094 28.2149 12.0644 29.3768 10.8102Z" fill="#77AA4C"/>
<path d="M0.58816 4.57619C-0.89017 4.23287 0.562083 0.245033 3.34037 0.109497C5.63926 1.1554 6.15035 2.08644 6.16233 4.5737C4.65507 4.56428 2.00633 4.46547 0.58816 4.57619Z" fill="#CBA677"/>
<path d="M13.531 12.0577C14.0221 11.6281 15.5175 9.77043 16.1431 9.92359C18.5617 10.5162 15.7875 12.7433 15.0108 13.5121C15.8603 14.361 18.4023 16.3967 16.2703 17.2408C15.3452 17.1393 14.2083 15.7309 13.5301 15.0203C12.8059 15.7311 11.231 17.9432 10.1635 16.9327C9.15834 15.9814 11.4042 14.1951 12.0624 13.5529C11.1068 12.5612 8.81781 11.0685 10.6481 9.90356C11.7747 9.94619 12.7764 11.2646 13.531 12.0577Z" fill="#D2504C"/>
<path d="M10.3151 19.7075L10.3503 19.7057C11.0134 19.674 13.4989 19.6606 14.024 19.706C15.5369 19.8367 24.8445 19.4026 25.5291 20.0278C25.8147 20.4847 25.5955 20.8831 25.202 21.1701L15.2071 21.1721C14.2746 21.172 10.5554 21.3668 9.99389 20.9362C9.67538 20.3767 9.88527 20.0953 10.3151 19.7075Z" fill="#CBA677"/>
<path d="M10.3498 5.88536C11.4668 5.83563 12.5276 5.89191 13.788 5.89744C17.4845 5.91359 21.2815 5.83221 24.9789 5.9099C25.5428 5.9218 26.0283 6.74092 25.1844 7.26581C24.9117 7.29792 24.697 7.31056 24.4233 7.31361C21.2234 7.34082 18.0235 7.3447 14.8245 7.32523C13.4139 7.32357 12.0024 7.34857 10.5926 7.32514C10.3244 7.32071 10.1461 7.26074 9.95145 7.07012C9.66002 6.54606 9.91174 6.17294 10.3498 5.88536Z" fill="#CBA677"/>
<path d="M18.6956 12.9005C19.4649 12.8766 20.1219 12.7748 20.6258 13.4902C20.6977 13.8491 20.7198 13.7245 20.5862 14.0232C20.308 14.259 20.2462 14.2848 19.8851 14.3402C19.1756 14.3608 18.0248 14.5109 17.6895 13.675C17.7374 13.0534 18.1612 12.9483 18.6956 12.9005Z" fill="#CBA677"/>
</svg>
