<svg width="15" height="11" viewBox="-0.4375 -0.295 15 11" fill="none" xmlns="http://www.w3.org/2000/svg">
<path d="M1.375 10.3751C1.65183 10.5349 4.09788 10.5351 4.375 10.3751C4.65212 10.2151 5.875 7.87517 6.375 6.37509C6.875 4.875 6.87512 0.87515 6.375 0.375029C5.87488 -0.125092 0.875007 -0.124947 0.375 0.375088C-0.125008 0.875123 -0.124992 6.08647 0.375 6.37509C0.875112 6.66378 3.375 6.37509 3.375 6.37509C3.375 6.37509 1.09817 10.2153 1.375 10.3751Z" fill="#C5934F"/>
<path d="M8.75 10.3751C9.02683 10.5349 11.4729 10.5351 11.75 10.3751C12.0271 10.2151 13.25 7.87517 13.75 6.37509C14.25 4.875 14.2501 0.87515 13.75 0.375029C13.2499 -0.125092 8.25001 -0.124947 7.75 0.375088C7.24999 0.875123 7.25001 6.08647 7.75 6.37509C8.25011 6.66378 10.75 6.37509 10.75 6.37509C10.75 6.37509 8.47317 10.2153 8.75 10.3751Z" fill="#C5934F"/>
</svg>
