<svg width="207" height="203" viewBox="0 0 207 203" fill="none" xmlns="http://www.w3.org/2000/svg">
<path d="M123.346 160.259C123.346 159.309 123.546 158.509 123.796 158.509C124.046 158.509 125.446 157.359 126.946 155.959C130.846 152.259 131.846 151.509 133.146 151.509C134.146 151.509 134.346 151.259 134.346 150.059C134.346 149.259 134.546 148.009 134.846 147.309C135.446 145.659 134.896 145.659 131.396 147.259C126.146 149.709 119.446 155.359 116.596 159.709C115.746 161.009 115.496 161.109 113.146 160.909C111.746 160.759 109.746 160.309 108.746 159.859C106.996 159.109 106.846 158.909 106.846 157.059C106.846 154.959 106.746 155.109 113.346 149.159C115.396 147.259 115.496 147.059 114.946 145.809C114.196 144.209 114.146 141.009 114.846 141.009C115.646 141.009 115.396 139.109 114.546 138.609C112.546 137.509 113.346 126.409 115.646 123.109L116.946 121.259L116.596 123.009C116.346 124.409 116.396 124.559 116.846 123.909C117.696 122.509 119.196 121.909 120.246 122.459C120.746 122.709 121.696 123.959 122.346 125.159C122.996 126.409 123.796 127.309 124.146 127.159C124.796 126.909 124.996 127.559 125.896 134.209C126.446 138.209 126.446 138.659 125.696 139.109C124.546 139.709 124.596 141.509 125.746 141.509C126.196 141.509 127.296 140.959 128.096 140.259C129.296 139.309 129.396 139.059 128.696 139.009C127.946 139.009 127.896 138.809 128.346 138.009C128.746 137.309 128.696 136.559 128.096 135.209C127.096 132.759 126.496 126.509 127.296 126.509C127.646 126.509 127.846 125.359 127.846 123.259C127.846 121.409 127.646 120.009 127.346 120.009C126.046 120.009 127.196 113.309 128.946 110.909C129.796 109.709 130.246 109.509 132.346 109.509C134.796 109.509 134.846 109.559 136.296 112.059C137.896 114.859 138.746 118.959 137.896 119.459C137.196 119.909 137.796 125.009 138.596 125.359C139.046 125.509 139.146 126.459 138.946 128.659L138.696 131.709L139.846 130.609C140.496 130.009 141.196 129.509 141.446 129.509C141.696 129.509 141.696 128.609 141.546 127.509C141.296 126.109 141.396 125.509 141.796 125.509C142.646 125.509 141.996 119.959 141.046 119.209C140.546 118.809 140.346 117.509 140.346 114.709C140.346 109.309 140.796 106.909 141.846 106.659C142.346 106.509 143.046 105.859 143.396 105.159C144.846 102.409 147.746 102.759 149.346 105.809C149.746 106.609 150.596 108.059 151.196 109.009C152.196 110.609 152.296 111.259 152.096 116.509C151.996 119.659 151.796 123.009 151.596 123.909C151.146 125.959 151.646 125.959 154.646 123.959C156.896 122.409 156.946 122.309 156.596 120.309C155.546 113.909 155.446 112.109 155.946 108.059C156.696 101.959 158.446 98.7587 160.946 99.1087C163.746 99.5087 166.096 108.909 164.946 115.409C164.646 117.259 164.496 118.809 164.646 118.959C164.746 119.109 165.896 118.709 167.146 118.109L169.396 117.009L169.096 114.109C168.596 109.659 169.596 103.259 171.346 99.6587C173.596 95.1087 175.696 94.8587 177.046 98.9087C177.946 101.559 178.096 108.309 177.296 111.159C176.996 112.259 176.896 113.209 177.046 113.359C177.346 113.659 180.846 112.559 180.896 112.109C180.896 111.909 180.996 110.209 181.046 108.259C181.346 100.759 185.946 93.1587 188.596 95.8087C190.196 97.4587 189.996 105.209 188.196 108.059C187.096 109.809 188.296 109.609 190.696 107.609C194.046 104.759 196.996 103.509 200.496 103.509C203.746 103.509 206.846 104.559 206.846 105.709C206.846 107.059 203.496 110.309 200.446 111.909C197.796 113.359 191.696 114.809 190.796 114.259C190.596 114.109 190.296 114.209 190.146 114.459C189.996 114.659 190.896 115.259 192.146 115.759C194.796 116.759 199.646 121.259 200.146 123.209C200.646 125.359 199.596 126.159 196.646 125.809C193.196 125.409 189.346 123.409 185.846 120.159L182.896 117.459L180.896 118.059C179.746 118.409 178.846 118.859 178.846 119.059C178.846 119.309 180.146 120.359 181.746 121.459C184.596 123.409 188.496 127.159 190.046 129.509C190.496 130.159 190.846 131.559 190.846 132.609V134.509H188.546C184.296 134.509 178.046 130.409 173.346 124.609L171.596 122.459L168.746 123.759C167.146 124.509 165.846 125.259 165.896 125.409C165.896 125.609 167.246 126.409 168.946 127.209C172.496 128.909 175.146 131.359 177.896 135.609C180.146 139.109 180.546 142.109 178.896 142.959C175.696 144.709 164.896 137.259 160.996 130.659C160.346 129.509 159.546 128.509 159.296 128.509C158.696 128.509 154.146 131.609 153.946 132.159C153.896 132.409 155.246 133.259 156.946 134.109C159.096 135.159 161.346 136.909 163.896 139.559C169.546 145.309 171.396 149.959 168.496 151.059C164.196 152.659 153.496 145.709 147.896 137.609L146.746 135.959L144.196 137.459C142.746 138.259 141.546 139.259 141.446 139.609C141.396 139.959 142.596 140.909 144.196 141.759C149.346 144.409 157.346 153.009 157.346 155.809C157.346 156.459 157.596 157.009 157.846 157.009C158.696 157.009 158.396 158.509 157.496 158.809C156.996 159.009 155.146 159.759 153.396 160.559C149.346 162.409 147.796 162.409 146.996 160.659C145.996 158.559 146.196 156.559 147.596 154.909C149.096 153.109 149.246 151.509 147.846 151.509C147.346 151.509 145.746 151.959 144.346 152.509C141.296 153.709 139.296 153.759 137.346 152.759L135.846 151.959V153.959C135.846 155.209 135.596 156.009 135.096 156.209C134.696 156.359 134.346 157.009 134.346 157.659C134.346 159.309 132.196 161.009 130.096 161.009C129.146 161.009 128.346 161.259 128.346 161.509C128.346 161.809 127.246 162.009 125.846 162.009H123.346V160.259Z" fill="#9FA384"/>
<path d="M49.3959 199.709C48.1959 198.159 47.6459 195.009 47.9459 191.009C48.0459 189.359 48.0459 188.009 47.9459 188.009C47.8459 188.009 46.496 189.159 44.996 190.559C41.696 193.509 38.3959 195.309 35.3459 195.709C30.7959 196.359 29.3459 193.859 32.1459 190.159C34.4959 187.059 38.4459 184.759 43.0459 183.759C44.8959 183.359 44.4459 183.009 40.0959 181.359C36.3959 179.959 32.8459 177.059 32.8459 175.509C32.8459 173.809 34.1459 173.359 38.0459 173.659C41.9959 173.959 44.996 175.009 48.996 177.609L51.3959 179.159L53.0959 178.209C55.7459 176.809 55.6459 176.709 50.2959 174.809C46.7459 173.559 43.4459 171.159 42.0959 168.809C39.9959 165.259 40.5459 163.509 43.5959 163.509C44.2459 163.509 44.996 163.159 45.246 162.709C45.646 161.959 45.8959 161.959 48.0459 162.709C51.3459 163.809 52.0959 163.759 50.7959 162.459C48.6459 160.309 47.6959 156.159 48.8459 153.959C49.2959 153.159 49.9459 153.009 52.4459 153.009C56.4959 153.009 58.8459 153.859 58.8459 155.309C58.8459 156.009 59.2459 156.509 59.8959 156.659C61.2959 157.059 62.1459 156.659 63.0459 155.209C63.7959 154.109 63.746 153.909 62.246 151.759C60.746 149.659 60.546 149.559 59.996 150.309C59.446 151.109 59.3459 150.959 59.3459 149.309C59.3459 145.909 59.896 145.509 64.246 145.509C67.296 145.509 68.646 145.759 70.746 146.759C72.246 147.459 73.5459 148.009 73.6459 148.009C73.7459 148.009 73.8459 146.809 73.8459 145.309C73.8459 142.409 74.9459 140.509 75.5959 142.459C75.8459 143.359 76.046 143.409 77.746 142.809C78.896 142.359 79.5459 141.859 79.5459 141.309C79.4459 140.459 81.5459 140.159 82.0459 140.959C82.1959 141.209 82.9459 141.559 83.6959 141.759C85.7959 142.259 88.8459 144.509 88.8459 145.559C88.8459 146.109 89.146 146.559 89.496 146.609C89.796 146.609 90.3459 146.709 90.6959 146.709C91.6959 146.809 95.0459 150.159 96.5959 152.609L98.0959 155.009H101.896C104.146 155.009 105.896 155.259 106.246 155.609C106.596 155.959 106.846 157.559 106.846 159.259C106.846 162.609 105.946 164.509 104.296 164.509C103.146 164.509 103.096 165.059 104.046 166.959C105.946 170.559 106.446 185.609 104.746 187.309C104.296 187.759 102.946 188.209 101.796 188.359C99.0459 188.659 97.4459 187.509 95.7959 184.109L94.6459 181.759L94.0459 186.109C93.3959 191.159 92.3459 193.259 90.6959 192.809C90.0959 192.659 89.3959 192.509 89.1959 192.509C88.9459 192.509 88.9459 192.309 89.0959 192.009C89.2459 191.759 89.0959 191.659 88.6959 191.809C87.8959 192.109 83.296 190.209 82.746 189.359C82.446 188.909 82.3459 188.909 82.3459 189.409C82.3459 189.859 82.0459 189.859 81.1959 189.259C79.6959 188.309 79.3459 188.659 79.3459 191.359C79.3459 194.309 78.6459 195.509 76.9459 195.509C74.4459 195.509 72.5459 192.559 70.0959 185.159C69.6459 183.709 68.9459 182.359 68.5959 182.159C68.2459 181.909 67.8459 180.959 67.6959 180.009C67.5459 178.459 67.4459 178.409 67.0959 179.359L66.746 180.459L65.7959 179.359C64.6459 177.959 64.5959 178.759 65.5959 182.509C66.6959 186.609 66.5959 194.809 65.3959 197.009C64.6959 198.409 64.1459 198.759 63.0459 198.759C61.7959 198.759 61.3959 198.409 60.3959 196.409C59.1459 193.759 57.6959 185.559 58.1459 183.409C58.5959 181.309 57.9959 180.959 56.0459 182.109C54.2959 183.159 54.2959 183.159 54.6959 185.709C55.3459 189.959 55.1459 196.059 54.1959 197.859C52.4459 201.209 50.9959 201.759 49.3959 199.709ZM62.1459 171.309C63.3959 170.359 62.9959 170.059 60.2959 169.759C57.8959 169.509 56.8459 168.559 56.8459 166.509C56.8459 165.759 56.2959 164.659 55.5959 164.009L54.3459 162.809L53.1959 163.959L52.0959 165.059L53.8459 166.559C57.5459 169.709 60.4459 172.009 60.7959 172.009C60.9959 172.009 61.5959 171.709 62.1459 171.309Z" fill="#78AB98"/>
<path d="M121.146 193.959C119.996 193.059 119.646 193.059 116.246 193.559C110.846 194.459 97.3459 194.309 93.0959 193.359C89.7459 192.609 85.6459 191.209 88.1959 191.709C89.7459 192.009 91.1459 190.809 91.8959 188.609C93.1459 184.859 92.0459 174.209 90.1459 171.259C89.6959 170.609 89.3459 169.609 89.3459 169.009C89.3459 168.209 89.6459 168.009 91.0959 168.009C92.6459 168.009 92.8459 168.159 92.8459 169.309C92.8459 171.309 94.846 178.559 95.746 179.959C96.246 180.709 97.0459 182.109 97.5959 183.159C99.2959 186.559 101.796 187.659 103.396 185.709C105.096 183.659 104.246 172.059 102.046 167.259C100.396 163.659 100.896 162.859 104.346 163.509C105.596 163.709 107.896 164.059 109.496 164.259L112.346 164.559V166.459C112.346 167.559 111.696 169.609 110.896 171.309C108.446 176.159 107.596 183.959 109.246 186.009L110.196 187.159L111.496 185.409C114.096 182.009 116.346 174.909 116.346 170.159V167.009H118.496C119.696 167.009 121.746 167.359 123.046 167.809L125.446 168.609L125.196 170.959C125.046 172.209 124.146 175.509 123.196 178.259C121.446 183.209 121.146 185.209 121.296 190.409C121.346 192.959 121.396 193.009 122.846 193.009C123.796 193.009 124.346 193.259 124.346 193.709C124.346 194.859 122.446 195.009 121.146 193.959Z" fill="#86A588"/>
<path d="M101.546 164.759C101.146 163.759 101.746 163.009 102.846 163.009C104.096 163.009 105.346 161.159 105.346 159.209C105.346 156.809 104.396 156.309 100.396 156.659L96.9459 156.959L94.9459 153.859C92.9959 150.809 91.8959 147.509 92.8459 147.509C93.1459 147.509 93.3459 147.759 93.3459 148.009C93.3459 148.309 93.646 148.509 94.046 148.509C94.446 148.509 94.8959 149.209 95.0959 150.009C95.2959 150.859 95.6459 151.509 95.8959 151.509C96.1459 151.509 96.3459 151.859 96.3459 152.259C96.3459 152.659 96.5959 153.009 96.8459 153.009C97.1459 153.009 97.3459 153.309 97.3459 153.709C97.3459 154.559 98.446 155.009 99.746 154.659C100.746 154.409 100.746 154.409 99.796 151.109C97.796 144.059 99.196 142.759 101.496 149.559C102.846 153.609 104.296 156.259 103.596 153.509C103.246 151.959 103.946 146.259 105.246 140.409L106.246 136.109L101.146 133.559C98.0959 132.009 95.9459 131.209 95.6459 131.509C95.3459 131.809 95.596 133.059 96.246 134.759L97.296 137.509H96.0959C95.1459 137.509 94.8459 137.259 94.8459 136.459C94.8459 135.909 94.496 135.109 94.046 134.659C92.896 133.509 93.296 129.809 94.546 129.559C96.696 129.159 104.346 122.459 104.346 121.009C104.346 120.709 104.696 120.509 105.096 120.509C105.496 120.509 105.846 120.059 105.846 119.559C105.846 119.009 105.996 118.509 106.246 118.409C106.896 118.159 109.896 111.609 110.146 109.859C110.296 109.009 110.146 107.909 109.896 107.509C109.446 106.859 109.146 106.909 107.646 107.759C105.596 108.959 100.596 113.609 100.196 114.709C99.9959 115.159 99.5459 115.509 99.0959 115.509C98.6959 115.509 98.3459 115.759 98.3459 116.059C98.3459 116.409 97.296 118.409 95.996 120.609C93.696 124.559 93.646 124.559 91.746 124.409C89.846 124.259 89.746 124.159 88.546 121.259C87.896 119.609 87.3459 117.309 87.3459 116.209C87.3459 114.259 87.496 114.009 89.996 112.309C91.446 111.309 92.896 110.509 93.246 110.509C93.546 110.509 93.8459 110.159 93.8459 109.709C93.8459 109.259 94.246 108.809 94.746 108.659C95.196 108.559 95.9459 107.809 96.3459 107.009C96.7459 106.209 98.2459 103.859 99.6459 101.809C102.696 97.4087 104.096 94.0586 103.646 92.2586C103.296 90.8586 101.796 89.9586 101.446 90.9086C101.346 91.2586 100.946 91.5086 100.546 91.5086C100.146 91.5086 99.8459 91.7586 99.8459 92.0086C99.8459 92.3086 99.4959 92.5086 99.0959 92.5086C98.6959 92.5086 97.296 93.7086 95.996 95.1086C94.696 96.5586 92.996 98.3586 92.246 99.1586C91.446 99.9586 90.8459 101.009 90.8459 101.559C90.8459 102.059 90.6459 102.509 90.3459 102.509C90.0959 102.509 89.8459 102.859 89.8459 103.259C89.8459 103.659 89.6459 104.009 89.3959 104.009C89.1459 104.009 88.7959 104.559 88.6459 105.259C88.3959 106.159 87.9959 106.509 87.0959 106.509C86.3959 106.509 85.8459 106.359 85.8459 106.159C85.8459 105.959 86.6459 104.459 87.6459 102.859L89.496 99.9086L88.3459 97.8087C87.6959 96.7087 87.096 95.6587 86.996 95.5587C86.946 95.4587 85.8959 96.1086 84.6959 97.0086C83.5459 97.9086 82.296 98.9086 81.996 99.1586C81.496 99.5086 81.3459 99.2587 81.3459 98.0587C81.3459 96.7587 81.5459 96.5086 82.5959 96.5086C83.4959 96.5086 83.8459 96.2586 83.8459 95.5086C83.8459 94.9586 84.0459 94.5086 84.3459 94.5086C84.9459 94.5086 89.196 90.1586 90.246 88.4086C90.696 87.6086 91.3459 87.0086 91.6959 87.0086C92.0459 87.0086 92.3459 86.4586 92.3459 85.7586C92.3459 84.7586 92.5959 84.5086 93.5959 84.5086C95.1459 84.5086 95.1459 84.7586 93.5959 87.2586L92.3959 89.2086L94.6959 90.3087L96.996 91.4586L99.296 89.9086C100.546 89.0586 101.696 88.2586 101.796 88.2086C101.896 88.1086 100.646 86.8087 99.0959 85.3087C96.4459 82.8087 96.096 82.6586 95.546 83.4086C94.946 84.1586 94.8959 84.0086 94.8459 82.2086C94.8459 81.0586 95.1959 79.1586 95.5959 77.9586C96.0459 76.7586 96.2459 75.2586 96.0959 74.6586C95.8959 73.7086 95.646 73.6086 94.546 74.0086C93.846 74.3086 92.496 74.5086 91.496 74.5086C89.946 74.5086 89.7959 74.4086 90.3959 73.7086C90.7459 73.3086 91.696 72.6086 92.546 72.2086C93.796 71.6586 93.8459 71.5587 92.8459 71.8087C91.5959 72.0587 91.596 72.0586 93.046 70.7086C96.196 67.9086 101.196 70.0086 108.996 77.4586C111.146 79.5086 113.996 82.8086 115.346 84.8586C116.696 86.8586 117.896 88.3586 117.996 88.1086C118.146 87.9086 118.846 85.8586 119.546 83.5086C120.296 81.1586 120.996 79.0086 121.146 78.6586C121.296 78.3086 119.896 77.3587 117.546 76.3087C110.496 73.0087 103.346 65.9086 100.096 58.9086C98.6459 55.8586 98.5459 54.1586 99.6459 52.6086C100.746 51.0086 103.096 51.2086 107.146 53.2586C113.246 56.3086 120.046 62.8586 122.896 68.3586C123.496 69.5086 124.146 70.4086 124.296 70.2586C124.446 70.1086 125.296 67.8586 126.146 65.2586L127.746 60.6086L123.646 57.9586C114.046 51.7586 106.746 40.5086 109.846 36.7586C112.646 33.3586 125.396 41.9086 128.996 49.6086C129.896 51.4586 130.746 53.0086 130.896 53.0086C131.246 53.0086 134.846 45.7086 134.846 45.0086C134.846 44.7586 133.396 43.5586 131.646 42.3086C127.696 39.5086 124.896 36.0586 122.296 30.7586C119.746 25.6586 119.346 23.0086 120.746 21.6086C121.596 20.7586 122.096 20.6586 123.246 20.9586C127.996 22.3586 133.396 27.5586 136.196 33.4586C137.246 35.6586 138.196 37.4586 138.346 37.4586C138.496 37.4586 139.346 35.8586 140.246 33.9086L141.896 30.3086L139.546 28.0586C134.946 23.6086 131.796 17.3086 131.646 12.4086C131.596 8.65864 132.446 7.65861 135.046 8.50861C138.196 9.50861 143.096 16.2586 145.096 22.2586C145.546 23.7086 146.146 22.4586 146.596 19.0086C147.546 11.3086 149.596 6.75863 153.746 2.95863C158.296 -1.19137 160.496 -0.991363 160.746 3.65864C161.046 9.40864 158.296 16.1586 153.496 21.5086C151.946 23.1586 150.796 24.6586 150.896 24.7586C150.996 24.8586 152.446 24.4586 154.096 23.9086C156.196 23.2086 158.396 22.9086 161.346 22.9086C165.746 22.9086 167.596 23.3586 168.996 24.7586C171.246 26.9586 169.096 29.4086 163.296 31.3086C159.796 32.4086 158.246 32.6586 154.096 32.6086C151.346 32.6086 148.646 32.5086 148.146 32.4086C147.396 32.3086 146.896 32.9586 145.796 35.6586C144.246 39.3586 144.246 39.3586 148.246 38.3086C154.896 36.5086 162.646 37.0086 166.746 39.5086C169.546 41.2586 168.746 43.7586 164.796 45.4586C158.996 47.9586 152.046 48.6086 145.046 47.2586C142.896 46.8586 140.996 46.7086 140.796 46.9086C140.196 47.4586 137.346 55.1586 137.596 55.4086C137.696 55.5586 138.446 55.4086 139.196 55.1086C145.246 52.6586 158.046 53.2087 162.696 56.0587C164.446 57.1587 165.296 59.1586 164.496 60.4586C162.246 64.2086 144.546 66.4087 137.346 63.8087C136.146 63.3587 134.896 63.0586 134.596 63.2086C134.096 63.3586 131.946 68.4086 131.096 71.4586C130.746 72.5586 130.846 72.6087 131.896 72.3087C139.646 69.9087 146.146 69.4086 152.996 70.7086C159.446 71.9586 162.346 73.6087 162.346 76.0587C162.346 78.9587 157.196 81.4087 148.496 82.5587C143.446 83.2087 138.796 82.9086 133.196 81.5086C130.996 80.9586 128.946 80.5086 128.646 80.5086C128.096 80.5086 127.146 82.8586 125.596 88.4586L124.846 91.1086L125.996 90.8087C134.396 88.3587 134.546 88.3087 142.346 88.3087C148.596 88.2587 150.596 88.4586 152.696 89.1586C159.296 91.4586 159.696 95.2086 153.596 98.1586C149.996 99.9586 144.646 100.709 136.096 100.709C129.746 100.709 128.146 100.559 125.696 99.7086C122.346 98.5086 122.396 98.4586 121.346 103.009C120.996 104.509 120.296 106.959 119.796 108.409C119.296 109.809 118.946 111.009 119.046 111.009C119.146 111.009 120.646 110.359 122.396 109.559C126.696 107.659 130.846 106.859 136.996 106.809L142.096 106.759L141.996 108.259C141.896 109.109 141.696 111.809 141.496 114.259L141.096 118.759H139.146C137.296 118.759 137.196 118.659 136.546 116.609C135.796 113.909 133.896 111.109 132.596 110.709C131.196 110.209 128.996 113.059 128.296 116.409C127.946 117.909 127.346 119.259 126.946 119.409C126.546 119.559 124.446 119.409 122.196 119.059C119.896 118.709 118.046 118.609 117.796 118.859C117.046 119.609 114.796 129.059 114.346 133.509C113.746 139.309 112.996 144.209 112.346 146.409C112.096 147.409 111.846 149.209 111.846 150.359C111.846 152.109 111.546 152.709 109.996 154.209C108.946 155.209 107.696 156.159 107.246 156.309C106.046 156.659 106.096 157.559 107.346 157.859C108.346 158.109 108.796 159.509 107.846 159.509C107.596 159.509 107.346 159.959 107.346 160.509C107.346 162.359 105.896 164.459 104.446 164.809C103.696 164.959 102.796 165.159 102.446 165.309C102.096 165.409 101.696 165.159 101.546 164.759ZM108.696 122.409C108.846 120.959 109.196 119.359 109.446 118.859C110.496 116.859 109.396 117.659 107.696 120.159C105.596 123.209 105.546 123.559 106.696 125.309C107.396 126.409 107.596 126.459 107.946 125.809C108.196 125.359 108.546 123.809 108.696 122.409ZM98.8459 112.709C100.446 110.459 100.446 110.359 99.5959 109.709C98.1459 108.609 97.446 108.859 95.046 111.209C93.596 112.659 93.146 113.309 93.796 113.159C94.446 113.009 94.9959 113.259 95.4459 113.959C96.3959 115.509 96.9959 115.259 98.8459 112.709ZM115.346 97.1586C115.346 96.8586 114.846 96.4086 114.246 96.2586C113.596 96.0586 111.596 95.0586 109.746 93.9586C107.946 92.9086 106.296 92.0086 106.146 92.0086C105.996 92.0086 105.846 92.5087 105.846 93.0587C105.846 93.6587 105.596 95.0087 105.296 96.0587C104.696 97.9587 104.696 97.9586 107.596 101.109C109.196 102.859 110.996 105.009 111.496 105.959L112.496 107.609L113.896 102.709C114.696 99.9586 115.296 97.5086 115.346 97.1586Z" fill="#789E89"/>
<path d="M48.196 164.309C46.896 163.959 45.696 163.509 45.496 163.359C45.346 163.159 45.496 162.059 45.846 160.909C46.946 157.059 49.396 152.859 52.196 149.959L54.896 147.109L53.496 146.809C52.746 146.659 51.046 146.409 49.796 146.209L47.496 145.909L47.196 148.059C46.446 153.759 39.296 163.509 35.896 163.509C34.696 163.509 34.196 163.209 33.746 162.259C32.546 159.609 35.296 152.359 39.096 148.109C40.346 146.709 41.346 145.359 41.346 145.059C41.346 144.759 40.696 144.509 39.896 144.509C39.096 144.509 37.796 144.359 36.946 144.209C35.546 143.909 35.346 144.059 35.046 145.309C34.846 146.109 33.846 148.459 32.846 150.509C29.546 157.059 23.996 161.059 22.346 158.009C21.396 156.209 24.046 149.209 27.046 145.659C28.846 143.559 28.696 143.009 26.396 143.009C24.446 143.009 24.346 143.109 22.846 146.159C20.946 149.909 18.296 152.809 15.696 154.009C13.496 155.009 12.046 154.809 11.296 153.409C10.596 152.109 12.596 148.009 15.346 145.009C16.446 143.809 17.346 142.659 17.346 142.459C17.346 142.259 16.296 142.459 14.996 142.859C7.94601 145.059 -3.15402 141.159 0.845981 137.909C3.39598 135.859 7.99598 135.509 13.596 137.009C15.546 137.509 17.146 137.859 17.196 137.809C17.246 137.759 16.546 136.609 15.646 135.259C13.546 132.059 12.196 128.559 12.446 126.709C12.596 125.459 12.796 125.259 13.996 125.359C17.046 125.559 21.746 130.709 23.096 135.309C23.846 137.859 23.946 137.909 26.146 138.259C27.396 138.409 28.546 138.459 28.696 138.359C28.796 138.209 28.096 136.909 27.146 135.509C24.996 132.409 23.846 128.759 23.846 125.209C23.846 121.959 24.646 121.109 26.746 122.209C30.296 124.059 34.096 130.859 35.546 138.109C35.796 139.259 36.096 139.409 38.396 139.609C39.796 139.659 40.996 139.659 41.096 139.509C41.196 139.359 40.346 137.409 39.246 135.209C35.696 128.009 35.446 120.509 38.846 120.509C41.746 120.509 46.296 128.059 47.346 134.659C48.246 140.309 48.296 140.409 49.246 140.709C49.696 140.809 51.046 141.059 52.196 141.259L54.346 141.609L52.896 138.409C49.846 131.559 48.696 123.459 50.496 121.659C51.246 120.909 51.246 120.809 50.446 120.209C49.696 119.609 49.746 119.559 51.146 119.509C53.896 119.509 57.246 120.959 58.046 122.559C58.946 124.309 58.046 124.609 56.596 123.009C56.096 122.459 55.446 122.009 55.146 122.009C54.846 122.009 54.946 122.259 55.346 122.509C55.746 122.759 56.096 123.159 56.096 123.359C56.146 123.559 56.746 124.709 57.496 125.909C58.246 127.059 58.996 128.709 59.196 129.509C59.546 131.409 60.046 131.709 60.896 130.709C61.446 130.009 61.646 130.159 62.146 131.859L62.746 133.759L62.796 131.659C62.846 129.409 63.646 128.759 63.996 130.659C64.096 131.259 64.246 130.259 64.296 128.409C64.346 126.009 64.596 124.859 65.196 124.209C65.996 123.459 65.946 123.409 64.446 123.759C62.646 124.109 62.496 123.959 63.646 122.809C64.846 121.609 70.346 121.809 70.346 123.059C70.346 123.309 69.746 123.509 68.996 123.509C68.196 123.509 67.846 123.709 68.096 123.909C68.396 124.109 69.146 124.959 69.746 125.859C70.446 126.859 71.396 127.509 72.196 127.609C73.346 127.759 73.746 128.259 74.896 131.259C75.646 133.209 76.296 135.659 76.296 136.709C76.346 138.559 76.296 138.609 75.646 137.709C74.996 136.859 74.896 137.309 75.046 141.809L75.146 146.859L81.346 152.909C84.746 156.259 87.446 159.059 87.346 159.159C86.846 159.509 84.296 160.509 83.846 160.509C83.596 160.509 82.596 159.159 81.596 157.509C80.146 155.109 78.946 153.959 75.396 151.559C69.046 147.259 67.296 146.509 64.196 146.509C61.546 146.509 61.496 146.559 60.696 148.409C60.246 149.409 59.746 151.059 59.546 152.009C58.946 155.309 58.596 155.559 56.296 154.759C53.946 153.909 50.046 153.759 49.596 154.509C48.996 155.509 50.046 158.659 51.696 160.859C53.346 163.009 53.396 163.159 52.546 164.059C51.546 165.159 51.396 165.159 48.196 164.309ZM86.146 158.609C86.196 158.259 86.146 158.209 86.046 158.459C85.896 158.759 85.446 158.809 84.996 158.659C84.446 158.459 84.296 158.509 84.546 158.959C84.996 159.659 85.996 159.459 86.146 158.609ZM67.846 144.309C67.846 144.159 67.296 143.009 66.596 141.709C65.896 140.409 65.346 139.059 65.346 138.659C65.346 138.259 64.896 137.809 64.346 137.659C63.596 137.459 63.346 136.909 63.246 135.559L63.196 133.759L62.996 135.409C62.796 137.009 62.146 137.509 61.696 136.409C61.546 136.059 61.496 137.409 61.596 139.409C61.696 141.459 61.846 143.159 61.946 143.209C62.046 143.309 65.596 144.109 67.496 144.459C67.696 144.459 67.846 144.409 67.846 144.309Z" fill="#878972"/>
<path d="M86.846 145.409C86.146 144.809 84.446 143.809 82.996 143.159C79.896 141.709 79.4459 141.209 78.8959 138.459C78.6459 137.259 78.4459 136.559 78.3959 136.909C78.3459 137.209 78.096 137.509 77.846 137.509C77.496 137.509 77.3459 135.759 77.4459 132.659L77.596 127.759L79.4459 127.609C80.4459 127.509 82.196 127.709 83.346 128.009C85.146 128.509 85.5959 128.909 86.3959 130.759C86.9459 131.959 87.596 133.109 87.846 133.259C88.596 133.709 88.4459 135.009 87.6459 135.009C87.2459 135.009 86.5459 134.509 86.1459 133.909C85.6959 133.309 85.346 133.009 85.346 133.209C85.346 133.459 85.646 134.059 85.996 134.459C86.896 135.509 88.496 142.809 88.246 144.859L88.096 146.409L86.846 145.409ZM80.496 128.759C81.496 128.309 81.7459 128.059 81.1959 128.009C78.8959 127.959 78.3459 128.859 78.4459 132.409L78.546 135.759L78.6959 132.609C78.8959 129.609 78.996 129.409 80.496 128.759ZM84.3959 129.809C84.0959 129.109 83.496 128.509 82.996 128.509C82.296 128.509 82.296 128.659 83.246 129.509C83.846 130.109 84.346 130.809 84.346 131.109C84.346 131.409 84.446 131.559 84.596 131.409C84.746 131.259 84.6459 130.559 84.3959 129.809Z" fill="#878972"/>
<path d="M158.896 201.209C158.296 200.459 157.846 199.759 157.846 199.559C157.796 199.409 157.646 197.809 157.396 196.009C156.996 192.959 157.246 189.959 158.096 186.159C158.446 184.659 158.346 184.559 156.096 183.559C154.796 182.959 153.696 182.509 153.646 182.509C153.646 182.509 153.696 184.659 153.746 187.259C153.896 191.059 153.746 192.559 152.846 195.209C150.946 200.959 148.746 202.509 146.846 199.409C144.846 196.109 145.096 187.559 147.296 182.359L148.296 180.009L146.346 179.009C145.246 178.459 144.196 178.009 143.946 178.009C143.696 178.009 143.296 179.409 143.146 181.159C142.646 185.609 139.546 195.209 138.046 197.009C135.296 200.259 132.796 198.409 132.446 192.859C132.146 187.959 133.046 183.009 135.096 178.309L136.796 174.409L135.046 173.709C134.096 173.309 132.646 172.859 131.896 172.709L130.496 172.409L130.196 177.359C129.846 183.809 127.846 190.509 125.446 192.859C123.646 194.659 122.596 194.859 121.146 193.759C120.346 193.159 120.096 192.209 119.946 188.559C119.746 184.809 119.946 183.359 121.046 179.559C121.746 177.109 122.796 174.009 123.396 172.759C123.996 171.459 124.296 170.259 124.046 170.059C123.596 169.609 118.996 168.009 118.246 168.009C118.046 168.009 117.846 169.159 117.846 170.559C117.846 175.159 115.196 183.709 112.796 187.009C111.946 188.159 111.246 188.509 109.996 188.509C107.596 188.509 107.096 187.209 107.196 181.409C107.246 176.109 108.246 171.959 110.196 168.609C110.846 167.409 111.346 166.309 111.196 166.209C110.996 166.009 103.096 164.509 102.246 164.509C101.996 164.509 101.846 164.309 101.846 164.009C101.846 163.759 102.246 163.509 102.746 163.509C104.096 163.509 105.346 161.909 105.696 159.759C105.996 157.959 106.046 157.909 107.796 158.259C108.746 158.459 110.596 158.959 111.796 159.359L114.046 160.109L114.996 158.709C116.796 156.059 124.096 149.259 126.896 147.659C129.796 145.959 134.896 144.359 136.096 144.859C138.996 145.959 132.546 154.309 124.446 160.009L121.296 162.259L124.196 163.109C127.996 164.259 128.196 164.259 129.046 162.659C130.646 159.559 137.846 153.659 142.496 151.609C148.896 148.809 152.146 150.009 149.896 154.409C148.646 156.859 146.296 158.959 139.996 163.209C137.146 165.109 134.846 166.809 134.846 167.009C134.846 167.159 135.996 167.859 137.446 168.509C139.946 169.609 139.996 169.659 140.696 168.709C144.546 163.359 153.046 157.809 158.196 157.159C161.346 156.809 162.196 157.659 161.346 160.209C160.546 162.609 153.496 169.159 149.796 170.909C148.196 171.659 146.896 172.409 146.896 172.609C146.846 172.759 147.896 173.409 149.146 174.009L151.446 175.159L153.496 173.109C156.396 170.309 160.046 168.159 163.796 167.009C168.646 165.509 171.346 165.809 171.346 167.909C171.346 170.059 165.146 175.209 160.046 177.259C156.546 178.659 156.396 178.859 158.146 179.509C158.946 179.809 160.096 180.259 160.646 180.559C161.546 181.009 162.096 180.809 163.996 179.359C169.296 175.309 178.846 173.709 178.846 176.809C178.846 178.309 174.646 181.809 171.496 182.959C169.896 183.559 168.246 184.159 167.846 184.309C167.396 184.509 168.346 184.959 170.096 185.459C176.646 187.309 180.846 190.959 180.846 194.709C180.846 196.359 180.196 196.709 176.946 196.609C173.296 196.509 170.196 194.959 166.996 191.609L164.346 188.859V192.559C164.296 197.259 163.746 199.809 162.296 201.309C160.846 202.859 160.146 202.809 158.896 201.209Z" fill="#608675"/>
<path d="M95.246 153.859C94.246 152.209 92.546 148.009 91.096 143.309C88.996 136.609 88.446 135.359 87.396 134.859C86.546 134.459 85.746 133.309 84.996 131.509C84.096 129.209 83.646 128.709 82.296 128.359C81.246 128.109 80.196 128.159 79.446 128.459C78.346 129.009 78.246 129.259 78.346 132.659C78.496 137.409 78.496 137.259 77.146 137.909C75.746 138.509 75.746 138.509 73.196 131.959L71.546 127.609L74.396 127.309C76.946 127.009 82.596 127.559 84.546 128.309C85.696 128.759 85.546 127.709 84.046 123.959C82.196 119.409 82.196 119.409 79.596 120.509C74.946 122.509 70.546 123.459 64.196 123.759C58.196 124.109 57.746 124.059 56.696 123.109C56.096 122.559 54.496 121.759 53.146 121.309C49.746 120.159 49.746 120.159 50.596 118.459C52.746 114.359 67.046 110.559 75.296 111.959C77.096 112.259 78.646 112.359 78.796 112.259C78.996 112.009 75.546 104.309 74.796 103.359C74.596 103.109 73.346 103.509 71.946 104.209C66.696 106.859 61.146 108.109 53.596 108.359C45.696 108.609 43.546 108.009 42.646 105.359C41.646 102.509 45.746 99.5587 53.846 97.4587C58.246 96.3087 66.846 95.8587 70.196 96.6087C72.096 97.0587 72.096 97.0087 69.246 91.7087L67.346 88.1588L61.946 90.3088C49.946 95.1588 36.496 95.1588 35.946 90.3088C35.696 88.4588 36.896 87.2587 40.996 85.2087C46.146 82.6087 51.996 81.3587 58.246 81.6087C61.046 81.7087 63.346 81.7087 63.346 81.6087C63.346 81.3587 60.796 76.9088 59.746 75.4088L58.846 74.0588L56.096 75.2588C49.646 78.1088 46.896 78.7588 40.596 78.7588C34.096 78.7588 31.596 78.1588 31.046 76.4088C29.846 72.6588 41.546 67.7087 50.796 68.1087C52.996 68.2087 54.846 68.1087 54.846 67.9587C54.846 67.4587 50.796 61.5088 50.496 61.5088C50.346 61.5088 48.696 62.0587 46.846 62.7087C39.896 65.2587 29.696 65.7088 26.946 63.6588C22.796 60.5588 27.746 56.8087 37.596 55.4587C40.046 55.1587 42.846 55.0088 43.896 55.1588C44.996 55.3088 45.846 55.2087 45.846 54.9587C45.846 54.7087 45.096 53.5088 44.246 52.2588C43.046 50.6088 42.346 50.0588 41.596 50.2588C41.046 50.3588 38.696 50.9588 36.346 51.5088C33.096 52.3588 31.396 52.5088 28.996 52.2588C25.096 51.8588 21.646 50.2087 21.446 48.6087C21.046 45.7587 24.196 44.4087 32.046 44.0587L38.046 43.7588L34.696 41.6087C30.796 39.0587 28.846 36.8588 26.796 32.6588C24.946 28.7588 24.446 25.4587 25.546 24.5587C27.346 23.0587 33.546 26.3087 36.946 30.5587C37.746 31.5087 39.146 34.1087 40.096 36.3087C41.046 38.4587 41.996 40.3088 42.246 40.4088C42.446 40.4588 42.896 39.3087 43.196 37.8087C44.296 32.5587 48.246 26.5088 50.596 26.5088C51.896 26.5088 53.046 29.0088 53.046 31.7588C52.996 35.0588 50.746 41.8588 48.796 44.5088C47.946 45.6588 47.346 46.7588 47.446 46.9088C48.196 48.6588 50.596 52.5088 50.846 52.5088C51.046 52.5088 51.346 51.7588 51.496 50.9088C51.996 47.8088 53.896 43.5087 56.096 40.5587C58.396 37.4587 62.146 34.7587 63.496 35.3087C64.696 35.7587 65.496 38.7087 65.096 41.0587C64.296 45.6587 60.196 53.6088 57.096 56.5088C56.396 57.1588 55.846 57.8588 55.846 58.0588C55.846 58.6088 59.046 63.2588 59.546 63.4088C59.796 63.5088 60.496 62.3587 61.096 60.8587C63.696 54.4587 71.046 46.5088 74.396 46.5088C76.296 46.5088 76.996 47.9587 76.746 51.4587C76.396 56.4587 71.396 64.8588 66.646 68.4088C65.696 69.1588 64.896 70.1088 64.846 70.5088C64.846 71.4588 67.946 77.0588 68.546 77.1588C68.796 77.2088 69.246 76.6088 69.496 75.7588C70.296 73.2588 75.096 66.4087 78.146 63.3587C81.246 60.2587 85.646 57.7588 86.996 58.3088C88.146 58.7588 88.746 61.3588 88.246 63.9088C87.496 68.0088 83.446 74.9088 79.346 79.0588C77.296 81.1588 75.046 83.2587 74.346 83.7087L73.146 84.5088L74.996 88.2588C75.996 90.3088 77.046 92.0088 77.246 92.0088C77.496 92.0088 78.046 91.0588 78.496 89.9088C81.146 83.2588 88.646 74.1588 92.696 72.8088C95.896 71.7088 96.796 71.8088 97.446 73.3088C98.746 76.0588 95.246 85.4087 90.846 90.9587C89.396 92.8087 82.796 98.6588 81.496 99.2588C81.096 99.4588 84.696 106.959 85.046 106.859C85.546 106.709 89.346 100.659 89.496 99.7588C89.546 99.5088 89.746 99.1588 89.896 99.0088C90.046 98.8588 91.346 97.3588 92.796 95.6588C95.496 92.3588 100.796 88.5588 102.646 88.5088C103.296 88.5088 104.096 89.0587 104.646 89.8587C106.596 92.9087 105.096 98.0088 100.446 104.159C98.996 106.009 97.846 107.709 97.846 107.909C97.846 108.759 91.846 113.759 88.496 115.759C88.196 115.909 91.346 123.259 91.746 123.409C91.996 123.459 93.096 122.009 94.096 120.159C96.496 115.859 99.796 111.409 100.396 111.809C100.646 111.959 100.796 111.909 100.746 111.659C100.446 110.609 106.346 105.709 108.846 105.009C110.096 104.659 110.446 104.759 111.096 105.659C112.946 108.259 111.446 114.059 107.346 120.159C104.496 124.409 99.146 129.709 96.646 130.759C95.646 131.209 94.846 131.609 94.846 131.709C94.846 131.859 95.346 133.009 95.896 134.359C96.846 136.509 103.346 155.659 103.146 155.809C103.146 155.859 101.696 156.059 100.046 156.259L96.996 156.609L95.246 153.859Z" fill="#608675"/>
</svg>
