<svg width="384" height="388" viewBox="0 0 384 388" fill="none" xmlns="http://www.w3.org/2000/svg">
<path d="M130.654 386.281C123.354 384.581 116.154 380.881 112.654 377.181C102.254 366.281 107.454 352.981 126.654 341.881C131.954 338.781 132.754 337.981 133.254 334.681C133.654 332.281 134.454 330.881 135.354 330.881C136.454 330.881 136.754 333.281 136.554 344.481L136.354 358.081L140.554 361.781C146.354 366.981 151.654 368.581 156.854 366.881C161.954 365.181 168.154 359.881 169.854 355.881C170.754 353.781 170.854 350.781 170.454 346.581C170.054 343.181 169.354 336.581 168.854 331.881C168.354 327.181 167.654 320.981 167.254 318.181C166.654 313.681 166.854 312.881 168.254 312.881C169.354 312.881 170.054 314.081 170.454 316.881C170.854 319.081 171.254 320.881 171.554 320.881C172.754 320.881 180.754 316.181 189.254 310.481C194.554 306.881 201.054 302.781 203.854 301.381C208.754 298.881 208.854 298.781 208.854 294.081C208.854 287.981 209.754 284.881 211.454 284.881C213.154 284.881 213.254 289.681 211.854 301.781C210.954 309.881 210.954 310.481 213.354 314.581C217.954 322.281 228.654 326.581 234.954 323.281C245.854 317.781 247.354 314.581 246.554 300.281C245.954 291.781 246.154 289.881 247.254 289.881C247.954 289.881 248.854 290.781 249.154 291.781C249.454 293.081 250.854 293.881 253.654 294.381C259.554 295.381 269.054 300.181 273.154 304.281C281.654 312.681 279.454 324.881 267.954 333.281C261.354 338.181 248.254 344.181 237.554 347.281C225.654 350.681 221.454 352.981 212.854 360.581C197.854 373.881 178.354 383.681 160.454 386.781C152.354 388.281 137.554 387.981 130.654 386.281Z" fill="black" fill-opacity="0.06"/>
<path d="M143.254 368.781C140.954 367.681 137.854 365.481 136.254 363.781L133.354 360.681L133.654 335.781C134.254 291.881 130.254 250.781 122.354 220.381C119.354 209.081 119.354 208.881 121.654 208.881C122.754 208.781 124.254 206.881 125.854 203.581L128.354 198.381H134.354H140.354L144.054 207.081C153.354 228.881 162.054 260.881 166.854 291.381C167.454 295.281 168.154 299.781 168.454 301.381C169.754 308.981 172.554 334.381 173.454 346.581C174.254 356.481 173.754 358.881 169.854 363.281C163.454 370.581 151.854 372.981 143.254 368.781Z" fill="#8EA68D"/>
<path d="M66.0536 266.281C60.8536 262.681 51.4537 239.281 49.7537 225.681C47.5537 207.881 53.4537 188.881 65.1537 176.181C69.6537 171.281 68.8537 170.781 59.9537 173.481C52.9537 175.481 46.9537 175.681 45.8537 173.881C45.3537 173.081 44.6537 170.381 44.2537 167.881C43.0537 159.581 42.3537 159.781 37.7537 169.281C32.6537 179.781 32.2537 179.981 16.0537 181.881C4.85365 183.181 4.75365 183.181 2.35365 180.881C-1.24635 177.481 -0.84635 174.081 4.45365 163.581C14.2537 143.881 25.7537 132.781 42.0536 127.181C56.3536 122.381 74.9537 124.381 91.5536 132.581C95.5536 134.581 99.0537 135.981 99.1537 135.781C99.3537 135.581 100.554 131.781 101.754 127.381C107.854 106.081 121.854 91.6809 141.854 86.3809C152.654 83.4809 170.954 84.7809 184.354 89.3809C191.054 91.6809 191.854 92.4809 191.854 96.8809C191.854 100.381 191.154 101.381 182.654 109.381C177.554 114.081 172.354 118.181 171.154 118.481C169.954 118.781 166.354 118.181 163.154 117.081C159.954 115.981 156.054 114.781 154.554 114.481C151.354 113.681 151.354 113.781 156.054 120.281C158.854 124.081 159.554 127.381 158.054 129.481C157.654 130.081 153.754 132.981 149.354 135.881C141.954 140.881 141.554 141.381 143.854 141.981C145.254 142.381 148.854 142.781 151.854 142.781C157.954 142.981 166.454 144.781 172.054 147.181C176.354 148.981 175.554 150.381 178.354 136.181C180.054 127.181 183.154 118.881 184.854 118.881C186.454 118.881 186.054 123.781 183.854 130.581C182.854 133.981 181.654 138.981 181.354 141.581L180.654 146.381L186.054 149.981C191.354 153.581 191.454 153.581 194.854 151.981C196.754 151.081 198.954 149.781 199.654 149.181C200.354 148.481 201.454 147.881 201.954 147.881C203.554 147.881 205.854 145.181 205.854 143.481C205.854 142.581 206.654 141.881 207.854 141.881C210.754 141.881 210.454 146.381 207.454 149.181C206.154 150.381 202.154 152.981 198.454 154.881C191.654 158.481 190.754 159.781 193.354 161.881C195.454 163.581 201.854 173.481 204.554 179.181C207.854 185.881 209.654 191.481 211.954 201.981C213.754 210.181 213.754 211.181 212.354 213.881C210.054 218.281 205.454 217.881 192.154 212.281C181.054 207.681 177.854 205.281 177.854 201.481C177.754 200.381 176.954 195.981 176.054 191.881L174.254 184.381L170.854 190.781C168.954 194.381 166.654 197.681 165.754 198.181C164.154 199.181 160.254 197.281 137.554 184.381C133.554 182.081 132.954 181.981 133.554 183.581C133.854 184.581 134.454 185.881 134.854 186.381C136.954 189.381 136.754 190.881 134.354 190.881C132.554 190.881 131.854 190.381 131.854 188.881C131.854 187.781 131.454 186.881 130.954 186.881C130.454 186.881 129.754 185.981 129.354 184.981C129.054 183.981 125.954 181.281 122.554 178.981L116.354 174.881L115.154 179.681C114.354 182.581 114.254 184.481 114.854 184.681C115.454 184.881 115.854 186.181 115.854 187.481C115.854 188.781 116.354 189.881 116.854 189.881C117.454 189.881 117.854 191.281 117.854 192.881C117.854 194.581 118.354 195.881 118.854 195.881C119.454 195.881 119.854 197.481 119.854 199.481C119.854 204.681 117.754 203.281 115.254 196.281C110.354 182.881 111.254 182.681 105.854 198.381C99.1537 218.381 96.7537 223.881 94.6537 224.981C93.1537 225.781 91.2537 225.281 86.1537 222.981C82.5537 221.281 79.4537 219.881 79.2537 219.881C79.0537 219.881 81.2536 224.381 84.0536 229.881L89.2536 239.881L83.3537 251.581C80.0536 258.081 76.4537 264.381 75.1537 265.681C72.5537 268.281 69.1536 268.481 66.0536 266.281Z" fill="#8EA68D"/>
<path d="M220.254 325.481C217.454 324.181 213.754 321.381 212.054 319.281C209.254 315.881 208.854 314.681 208.854 309.381C208.854 289.681 214.354 242.381 219.954 214.381C224.954 189.581 226.754 182.281 232.554 163.581C236.754 150.281 237.454 148.781 239.754 148.181C242.254 147.581 242.254 147.481 240.154 146.981C238.154 146.381 238.054 146.181 239.354 143.181C241.154 138.881 242.854 138.981 242.854 143.381V146.881H248.254C251.354 146.881 254.054 147.381 254.554 148.181C255.054 148.781 256.454 152.281 257.654 155.881L259.754 162.381L257.754 170.381C255.154 181.381 251.154 211.081 249.854 230.381C248.654 248.581 248.254 273.481 248.654 298.781C249.054 318.881 248.954 319.081 239.854 324.681C233.154 328.681 227.554 328.881 220.254 325.481Z" fill="#839B81"/>
<path d="M298.554 211.081C296.654 208.981 286.854 185.781 286.854 183.281C286.854 182.381 289.354 177.681 292.454 172.781C295.554 167.881 297.954 163.581 297.654 163.281C297.354 163.081 294.754 163.681 291.954 164.881C289.154 165.981 285.454 166.881 283.854 166.881C281.554 166.881 280.854 166.281 279.954 163.681C278.454 158.881 274.154 141.281 272.854 134.381C271.154 125.381 270.954 124.981 269.354 127.881C267.654 130.981 267.254 129.881 266.354 120.581C265.754 114.181 265.554 113.781 263.954 115.281C262.954 116.181 261.954 116.881 261.654 116.881C261.454 116.881 259.254 118.681 256.854 120.881C254.454 123.081 252.154 124.881 251.754 124.881C251.354 124.881 250.754 125.981 250.454 127.381C250.054 128.781 249.154 129.881 248.354 129.881C247.354 129.881 246.854 130.981 246.854 133.381C246.854 136.481 246.554 136.881 244.354 136.881C241.654 136.881 241.554 137.181 245.754 127.581C246.954 124.781 247.354 123.081 246.554 123.481C245.954 123.981 241.054 127.381 235.854 131.081C222.054 140.981 220.554 141.081 215.354 131.981C213.754 129.181 212.154 126.881 211.854 126.881C211.454 126.881 210.754 131.681 210.154 137.481C208.854 149.381 209.554 148.481 197.754 154.781C191.154 158.281 189.954 158.681 188.854 157.381C188.254 156.581 185.154 154.281 182.154 152.281L176.654 148.681L177.354 143.481C181.154 116.081 195.554 95.3808 216.054 88.0808C218.654 87.1808 220.854 86.1808 220.854 85.7808C220.854 85.4808 217.154 84.3808 212.654 83.2808C203.054 81.0808 202.554 80.2808 205.354 71.7808C206.354 68.9808 206.854 66.5808 206.554 66.2808C206.354 65.9808 202.854 68.0808 198.854 70.8808C194.754 73.5808 190.654 75.8808 189.554 75.8808C186.654 75.8808 165.654 67.9808 163.654 66.1808C160.754 63.5808 161.454 59.4808 165.354 56.0808C173.154 49.1808 186.854 42.4808 198.754 39.7808C204.654 38.4808 218.254 38.4808 224.354 39.8808C230.154 41.1808 243.154 47.3808 245.554 50.0808C248.654 53.5808 248.854 51.8808 245.854 46.4808C244.154 43.5808 243.054 40.4808 243.354 39.6808C243.654 38.8808 246.154 37.1808 248.954 35.8808C251.654 34.5808 253.854 33.1808 253.854 32.7808C253.854 32.3808 251.254 31.4808 248.154 30.8808C236.254 28.4808 236.554 28.6808 233.754 22.7808C232.254 19.7808 230.054 14.3808 228.754 10.6808C226.454 4.08083 226.454 3.98082 228.354 1.78083C230.154 -0.0191749 231.054 -0.319175 235.854 0.280825C244.654 1.18082 252.754 3.58083 261.454 7.88083C279.654 16.7808 290.054 31.7808 291.554 51.0808C291.854 55.3808 292.354 58.8808 292.554 58.8808C292.854 58.8808 295.954 56.7808 299.454 54.2808C303.054 51.6808 309.454 48.2808 313.654 46.5808C320.654 43.7808 322.454 43.4808 332.354 43.3808C344.854 43.3808 349.454 44.5808 362.254 51.1808C370.654 55.4808 383.854 67.0808 383.854 70.0808C383.854 73.5808 380.354 75.6808 369.654 78.2808C363.754 79.6808 357.954 80.8808 356.854 80.8808C355.754 80.8808 351.854 78.1808 348.254 74.7808C344.654 71.4808 341.554 68.8808 341.254 69.0808C341.054 69.2808 341.354 72.1808 341.854 75.3808C342.954 82.2808 342.354 83.4808 336.754 84.3808L332.754 85.0808L341.654 89.4808C351.454 94.1808 362.754 103.681 361.354 105.981C360.854 106.681 360.954 106.981 361.554 106.581C363.254 105.481 369.954 116.581 372.954 125.381C375.854 133.881 378.854 147.081 378.854 151.381C378.854 159.181 373.954 159.781 362.354 153.581C345.854 144.681 346.354 145.181 344.354 135.181C341.954 123.381 341.654 123.081 338.854 128.081C334.154 136.881 332.954 137.181 325.554 131.781C323.354 130.181 321.354 128.981 321.154 129.181C320.954 129.381 321.954 132.581 323.354 136.381C328.954 151.181 328.754 167.781 322.754 184.281C319.554 193.081 312.254 206.781 308.654 210.581C306.054 213.381 300.854 213.681 298.554 211.081Z" fill="#839B81"/>
<path d="M116.654 200.481L110.954 183.081L112.554 176.481C113.454 172.881 114.554 169.881 114.954 169.881C115.354 169.881 119.154 172.281 123.554 175.181C131.154 180.181 131.454 180.681 136.054 189.881C138.654 195.081 140.754 199.781 140.754 200.181C140.854 200.681 139.154 200.781 136.954 200.381C132.054 199.581 130.754 200.881 126.354 210.581C124.454 214.581 122.854 217.881 122.654 217.881C122.454 217.881 119.754 209.981 116.654 200.481Z" fill="#778B77"/>
<path d="M257.354 164.181C256.954 163.181 255.554 159.681 254.354 156.381C253.054 153.081 251.454 149.981 250.554 149.481C249.554 148.781 247.154 149.181 242.954 150.581C239.554 151.781 236.854 152.281 236.854 151.881C236.854 150.381 242.054 136.581 245.354 129.381C247.154 125.281 249.654 121.581 251.154 120.581C253.354 119.181 253.654 119.081 253.254 120.381C252.754 121.681 253.054 121.781 255.354 120.881C256.854 120.281 258.454 120.081 258.954 120.381C259.454 120.781 259.554 120.281 259.254 119.481C258.954 118.681 257.754 118.181 256.554 118.381C254.954 118.681 255.654 117.681 259.354 114.281C267.654 106.881 267.354 106.781 268.854 116.281C270.154 124.481 270.054 124.781 267.054 134.481C265.354 139.981 262.754 149.081 261.354 154.881C259.854 160.681 258.554 165.481 258.354 165.681C258.254 165.881 257.754 165.181 257.354 164.181ZM262.354 140.881C262.054 140.481 262.454 139.781 263.054 139.581C263.854 139.181 263.754 138.981 262.754 138.981C261.054 138.881 259.554 141.181 260.554 142.281C261.354 143.081 262.954 141.881 262.354 140.881ZM264.654 134.581C265.154 132.181 263.154 132.481 262.554 134.981C262.254 136.281 262.454 136.881 263.154 136.581C263.854 136.381 264.454 135.481 264.654 134.581Z" fill="#728470"/>
</svg>
