<svg width="272" height="180" viewBox="0 0 272 180" fill="none" xmlns="http://www.w3.org/2000/svg">
<path d="M183.004 164.107C182.204 162.807 183.704 161.507 188.304 159.807C194.504 157.507 207.504 150.707 211.004 148.007C214.804 145.007 217.304 141.007 217.304 137.807C217.304 135.307 213.704 126.407 211.204 122.807C210.004 121.007 209.704 119.707 210.404 118.507C211.104 117.307 210.904 116.107 209.604 114.407C207.404 111.407 198.204 105.307 196.604 105.607C194.304 106.107 195.304 101.607 198.304 97.8071C205.204 89.0071 205.504 84.6071 200.204 68.1071C198.604 63.1071 197.304 58.3071 197.304 57.4071C197.304 56.6071 197.004 55.8071 196.604 55.6071C196.104 55.5071 194.104 51.9071 192.104 47.8071C187.004 37.6071 184.004 32.5071 182.604 31.5071C181.904 31.1071 181.304 29.8071 181.304 28.8071C181.304 27.7071 180.604 26.8071 179.804 26.8071C179.004 26.8071 178.304 26.0071 178.304 25.1071C178.304 24.1071 177.604 22.0071 176.704 20.3071L175.204 17.3071L178.404 20.3071C184.304 25.7071 191.804 35.6071 191.304 37.4071C191.204 37.8071 191.604 38.4072 192.104 38.7072C193.604 39.6072 197.304 47.5072 196.604 48.2072C196.204 48.5072 196.504 48.8071 197.104 48.8071C197.804 48.8071 198.204 49.1071 198.104 49.6071C198.104 50.0071 198.304 51.1071 198.604 52.1071C199.004 53.0071 199.504 54.4072 199.704 55.2072C199.904 55.9072 204.104 57.7072 208.904 59.2072C221.004 63.0072 245.104 75.5071 255.904 83.6071C273.004 96.5071 275.504 105.007 265.404 116.207C263.004 118.807 246.904 130.107 244.204 131.007C243.604 131.207 244.704 133.107 246.604 135.207C253.704 142.907 252.304 147.307 240.104 154.807C227.804 162.307 222.504 163.607 201.404 164.407C189.504 164.907 183.404 164.807 183.004 164.107Z" fill="black" fill-opacity="0.06"/>
<path d="M87.0041 176.407C80.9041 174.407 75.3041 170.607 75.3041 168.707C75.3041 168.307 77.0041 168.607 79.1041 169.507C84.9041 172.007 95.0041 171.807 99.4041 169.007C103.804 166.307 106.704 160.707 105.904 156.707C105.404 154.107 105.504 153.907 107.204 154.707C110.504 156.507 114.604 162.907 115.004 167.207C115.404 170.707 115.104 171.707 112.804 174.007C107.604 179.307 98.0041 180.207 87.0041 176.407Z" fill="#8E8E8E"/>
<path d="M183.804 161.207C185.904 157.207 185.704 150.907 183.304 147.107C181.904 144.807 180.204 143.607 177.104 142.807C164.204 139.607 154.304 135.507 154.304 133.207C154.304 131.307 157.104 131.407 166.604 133.907C179.604 137.307 184.404 137.007 193.304 132.307C197.504 130.107 203.304 125.807 206.604 122.607L212.304 116.907L213.904 119.307C217.404 124.607 220.304 133.407 220.304 138.707C220.304 144.007 220.104 144.307 215.204 149.107C209.204 154.807 193.704 162.807 186.804 163.507L182.304 164.107L183.804 161.207Z" fill="#8E8E8E"/>
<path d="M55.9041 138.507C53.3041 136.607 52.3041 129.807 53.9041 125.207C56.5041 117.507 65.8041 105.807 73.3041 100.507L75.7041 98.9071L74.6041 84.0071C74.0041 75.8071 73.0041 68.0072 72.3041 66.7072C71.6041 65.4072 68.5041 61.6071 65.5041 58.3071C60.5041 52.9071 56.5041 46.2071 57.6041 45.1071C58.4041 44.4071 67.4041 49.2071 78.0041 56.1071C88.6041 63.0071 96.3041 67.2071 100.404 68.1071C104.604 69.2071 112.804 66.1071 118.004 61.6071C124.404 56.1071 129.204 54.1071 142.104 51.8071C166.404 47.4071 174.104 41.8071 176.704 26.7071L177.904 19.5071L182.204 24.4071C190.804 34.2071 200.004 53.1071 204.804 70.9071C208.904 86.3071 207.904 93.0071 200.104 102.007C196.804 105.707 196.804 105.807 192.304 104.707C183.304 102.607 163.104 107.207 152.404 113.907C147.704 116.707 137.304 127.207 137.304 129.007C137.304 130.207 124.104 129.807 113.804 128.407L104.804 127.107L95.8041 131.507C90.9041 133.807 83.2041 136.707 78.9041 137.807C69.8041 140.107 58.6041 140.407 55.9041 138.507ZM158.604 107.307C164.304 104.607 167.304 101.107 167.304 97.0071C167.304 93.5071 161.404 83.3072 156.404 78.2072C149.304 70.9072 147.004 70.2072 136.404 71.7072C131.704 72.3072 122.604 73.5071 116.304 74.4071C102.704 76.2071 99.8041 77.7071 95.4041 84.9071C91.1041 91.9071 93.5041 98.3071 101.504 102.107C106.104 104.207 113.704 106.107 132.304 109.807C140.504 111.507 152.304 110.407 158.604 107.307Z" fill="#8E8E8E"/>
<path d="M85.0041 176.407C81.8041 175.007 78.3041 173.207 77.3041 172.307C74.8041 170.007 74.0041 165.807 75.3041 162.207C76.6041 158.707 81.8041 153.207 85.5041 151.207C89.3041 149.207 98.0041 149.507 103.004 151.807C106.604 153.407 115.304 160.907 115.304 162.307C115.304 162.607 114.004 162.807 112.304 162.807C110.004 162.807 109.104 163.507 107.704 166.307C105.804 170.307 101.404 173.307 96.1041 174.307C93.3041 174.807 92.3041 175.507 92.3041 176.907C92.3041 179.307 92.0041 179.307 85.0041 176.407Z" fill="#A4A5A3"/>
<path d="M168.304 164.107C166.404 163.907 161.604 163.107 157.804 162.307C141.204 159.007 133.504 153.807 132.604 145.407C132.204 142.207 131.604 140.807 130.604 140.807C129.404 140.807 129.204 139.907 129.604 137.107C130.804 129.307 131.604 126.807 132.904 126.807C133.704 126.807 134.304 126.407 134.304 126.007C134.304 125.607 136.604 122.607 139.404 119.507L144.504 113.807H140.104C131.304 113.807 104.804 108.207 97.8041 104.807C95.2041 103.507 92.6041 101.407 91.8041 99.7072C89.6041 95.5072 89.9041 86.0071 92.4041 81.9071C95.8041 76.3071 100.204 72.9072 104.304 72.7072C105.704 72.6072 104.204 72.2072 101.104 71.7072C94.6041 70.8072 88.7041 68.0071 76.4041 60.1071C68.7041 55.2071 68.1041 54.9071 70.9041 57.9071C72.7041 59.8071 74.6041 62.3071 75.2041 63.6071C76.6041 66.2071 78.2041 82.9071 78.2041 94.3071L78.3041 102.307L74.3041 105.107C69.6041 108.407 64.7041 114.307 59.9041 122.307C55.8041 129.007 55.4041 131.907 58.3041 134.807C59.4041 135.907 60.3041 137.707 60.3041 138.707C60.3041 140.507 60.0041 140.607 54.1041 139.207C41.7041 136.307 18.8041 123.807 9.10406 114.407C1.60406 107.207 -0.0959153 103.807 0.00408473 96.0071C0.00408473 90.3071 0.704072 88.5071 6.30407 77.1071C13.3041 63.1071 19.8041 55.5071 28.9041 50.6071C35.0041 47.3071 44.9041 44.8071 52.1041 44.8071C55.7041 44.8071 57.3041 44.4071 57.3041 43.5071C57.3041 42.8071 58.0041 39.9071 58.8041 37.0071C62.6041 24.5071 86.9041 6.80713 108.304 1.30713C116.104 -0.79287 130.704 -0.292871 139.304 2.30713C151.004 5.80713 170.104 14.1071 174.904 17.7071L179.804 21.4071L179.604 27.7071C179.204 43.2071 170.304 50.3071 145.204 54.8071C132.304 57.1071 127.104 59.2071 121.404 64.4071C119.104 66.4071 114.804 69.0071 112.004 69.9071C105.104 72.3071 108.404 72.3071 125.104 69.8071C143.904 67.0071 149.004 67.1071 154.004 70.6071C163.204 76.8071 170.304 88.6071 170.304 97.6071C170.304 102.807 170.304 102.807 173.104 102.107C174.604 101.707 180.604 101.407 186.504 101.307C196.104 101.307 197.304 101.107 197.304 99.6071C197.304 98.6071 198.004 97.8071 198.804 97.8071C199.604 97.8071 200.304 96.9071 200.304 95.8071C200.304 94.2071 201.004 93.8071 203.804 93.8071C207.104 93.8071 207.304 94.0071 207.304 97.3071C207.304 99.7071 206.804 100.807 205.804 100.807C203.404 100.807 204.104 104.407 206.804 106.207C211.104 109.007 214.304 113.207 214.304 116.007C214.304 118.307 214.704 118.807 216.804 118.807C219.004 118.807 219.304 119.207 219.304 122.307C219.304 124.607 219.804 125.807 220.704 125.807C222.204 125.807 223.304 128.807 223.304 133.107C223.304 135.507 222.904 135.807 219.904 135.807C216.304 135.807 215.304 134.307 215.304 128.607C215.304 126.807 214.804 125.807 213.804 125.807C213.004 125.807 212.304 125.307 212.304 124.707C212.304 124.107 210.604 125.107 208.404 127.107C203.504 131.507 192.504 137.707 186.504 139.307C183.904 140.007 182.404 140.707 183.104 140.707C185.804 140.907 188.304 147.107 188.304 153.607C188.304 159.507 188.404 159.807 190.804 159.807C192.804 159.807 193.304 160.307 193.304 162.307V164.807L182.604 164.607C176.604 164.607 170.204 164.307 168.304 164.107Z" fill="#A4A5A3"/>
<path d="M94.8041 179.107C93.2041 178.907 91.1041 178.407 90.3041 178.107C89.5041 177.807 88.5041 177.407 88.1041 177.307C87.6041 177.107 87.1041 176.907 86.8041 176.807C86.5041 176.707 86.0041 176.507 85.6041 176.407C80.0041 174.907 75.4041 170.907 74.9041 167.107C74.7041 165.507 74.8041 165.107 75.0041 166.107C75.3041 167.107 77.0041 168.607 78.9041 169.407C80.8041 170.207 82.3041 171.207 82.3041 171.707C82.3041 172.207 83.8041 172.807 85.6041 173.107C87.3041 173.407 91.5041 174.107 94.8041 174.807C100.404 176.007 101.304 175.907 105.504 174.007C111.504 171.407 112.704 169.307 110.504 164.807C109.604 162.907 108.304 160.907 107.704 160.307C107.004 159.807 106.204 157.707 105.804 155.807C105.504 153.907 105.504 152.807 106.004 153.407C106.404 154.007 107.604 154.807 108.604 155.107C109.704 155.507 110.704 156.707 111.004 157.707C111.304 158.907 113.604 160.407 117.304 161.707C122.504 163.607 128.304 168.407 128.304 170.707C128.304 172.307 123.504 175.807 119.304 177.307C116.804 178.207 112.404 178.807 109.604 178.707C106.704 178.507 104.004 178.707 103.604 179.107C103.004 179.807 100.204 179.807 94.8041 179.107Z" fill="black" fill-opacity="0.06"/>
<path d="M58.0041 139.707C57.1041 139.207 55.7041 139.007 55.0041 139.407C54.4041 139.807 54.1041 139.807 54.5041 139.307C54.9041 138.907 54.7041 137.607 54.1041 136.507C53.2041 134.807 53.3041 134.607 54.9041 135.307C62.6041 138.607 78.3041 135.807 93.2041 128.607C101.404 124.707 101.704 124.607 109.704 125.207C114.204 125.507 122.204 126.107 127.604 126.407C134.904 126.907 137.304 127.407 137.304 128.407C137.304 129.207 136.604 129.807 135.804 129.807C135.004 129.807 134.404 130.107 134.504 130.607C134.604 131.007 134.104 133.407 133.304 136.107L131.904 140.807H95.8041C73.1041 140.807 59.2041 140.407 58.0041 139.707Z" fill="black" fill-opacity="0.06"/>
<path d="M87.0041 176.407C80.9041 174.407 75.3041 170.607 75.3041 168.707C75.3041 168.307 77.0041 168.607 79.1041 169.507C84.9041 172.007 95.0041 171.807 99.4041 169.007C103.804 166.307 106.704 160.707 105.904 156.707C105.404 154.107 105.504 153.907 107.204 154.707C110.504 156.507 114.604 162.907 115.004 167.207C115.404 170.707 115.104 171.707 112.804 174.007C107.604 179.307 98.0041 180.207 87.0041 176.407Z" fill="#8E8E8E"/>
<path d="M55.9041 138.507C53.3041 136.607 52.3041 129.807 53.9041 125.207C56.5041 117.507 65.8041 105.807 73.3041 100.507L75.7041 98.9071L74.6041 84.0071C74.0041 75.8071 73.0041 68.0072 72.3041 66.7072C71.6041 65.4072 68.5041 61.6071 65.5041 58.3071C60.5041 52.9071 56.5041 46.2071 57.6041 45.1071C58.4041 44.4071 67.4041 49.2071 78.0041 56.1071C88.6041 63.0071 96.3041 67.2071 100.404 68.1071C104.604 69.2071 112.804 66.1071 118.004 61.6071C124.404 56.1071 129.204 54.1071 142.104 51.8071C166.404 47.4071 174.104 41.8071 176.704 26.7071L177.904 19.5071L182.204 24.4071C190.804 34.2071 200.004 53.1071 204.804 70.9071C208.904 86.3071 207.904 93.0071 200.104 102.007C196.804 105.707 196.804 105.807 192.304 104.707C183.304 102.607 163.104 107.207 152.404 113.907C147.704 116.707 137.304 127.207 137.304 129.007C137.304 130.207 124.104 129.807 113.804 128.407L104.804 127.107L95.8041 131.507C90.9041 133.807 83.2041 136.707 78.9041 137.807C69.8041 140.107 58.6041 140.407 55.9041 138.507ZM158.604 107.307C164.304 104.607 167.304 101.107 167.304 97.0071C167.304 93.5071 161.404 83.3072 156.404 78.2072C149.304 70.9072 147.004 70.2072 136.404 71.7072C131.704 72.3072 122.604 73.5071 116.304 74.4071C102.704 76.2071 99.8041 77.7071 95.4041 84.9071C91.1041 91.9071 93.5041 98.3071 101.504 102.107C106.104 104.207 113.704 106.107 132.304 109.807C140.504 111.507 152.304 110.407 158.604 107.307Z" fill="#8E8E8E"/>
</svg>
