<svg width="162" height="141" viewBox="0 0 162 141" fill="none" xmlns="http://www.w3.org/2000/svg">
<path d="M98.5384 138.389C97.6384 135.989 97.3384 135.889 83.2384 135.289C75.4384 134.889 67.9384 134.389 66.7384 133.989C62.3384 132.789 64.4384 130.989 71.5384 129.789C75.4384 129.089 81.8384 127.089 85.7384 125.289C93.1384 121.889 102.938 113.789 105.338 109.189C106.238 107.589 107.638 106.589 108.938 106.589C110.938 106.589 111.238 105.889 111.738 100.989C112.038 97.9888 112.738 94.8888 113.238 94.2888C113.638 93.5888 114.638 91.0887 115.438 88.5887C116.138 86.0887 117.438 82.9887 118.238 81.6887C119.338 79.8887 119.638 76.3888 119.538 67.9888C119.338 58.3888 119.538 56.5887 120.838 56.5887C122.538 56.5887 123.638 61.2887 123.138 66.5887C122.738 69.9887 122.938 70.1888 125.738 69.9888C127.338 69.8888 129.138 69.2887 129.738 68.6887C131.838 66.5887 133.738 67.3887 133.038 70.0887C132.538 72.1887 132.938 72.7887 136.638 74.6887C139.038 75.8887 142.238 77.6888 143.738 78.7888C146.038 80.4888 147.038 80.5887 149.638 79.6887C153.738 78.2887 155.038 79.5887 152.538 82.6887C150.638 85.0887 150.638 85.0888 153.138 89.2888C154.538 91.6888 155.838 95.7888 156.138 98.9888C156.638 103.489 157.138 104.589 159.138 105.489C162.338 106.989 161.638 108.989 157.638 109.589C155.238 109.989 153.738 111.289 151.438 114.789C149.638 117.389 146.938 120.689 145.338 121.989C142.738 124.189 142.538 124.689 143.638 126.989C145.138 130.489 143.938 131.389 140.238 129.289C137.338 127.589 137.038 127.689 130.138 130.089C124.538 132.189 107.738 135.589 103.238 135.589C102.738 135.589 102.438 136.189 102.438 136.989C102.438 137.689 101.738 138.889 100.938 139.589C99.7384 140.589 99.3384 140.389 98.5384 138.389Z" fill="black" fill-opacity="0.06"/>
<path d="M49.4384 131.489C42.1384 129.589 32.8384 124.789 29.7384 121.389C28.2384 119.689 28.3384 119.589 31.7384 119.589C34.7384 119.589 35.4384 119.989 35.4384 121.589C35.4384 123.189 36.1384 123.589 38.5384 123.589C40.9384 123.589 41.4384 123.289 40.7384 122.389C39.4384 120.689 35.7384 111.089 34.4384 105.889C33.4384 101.989 33.1384 101.689 29.6384 101.389C26.0384 101.089 25.9384 100.989 25.6384 96.9888C25.3384 93.4888 25.7384 92.4888 28.1384 90.4888C30.9384 88.0888 30.9384 88.0888 30.6384 76.9888L30.3384 65.7888L27.4384 64.5888C24.7384 63.4888 24.4384 62.8888 24.4384 59.0888C24.4384 54.6888 25.4384 53.5888 29.4384 53.5888C30.8384 53.5888 31.3384 52.4887 31.9384 48.3887C32.2384 45.4887 33.3384 40.4888 34.1384 37.2888C35.6384 31.9888 35.5384 31.3887 34.0384 29.6887C32.8384 28.3887 32.4384 26.4887 32.6384 23.8887C32.9384 20.1887 33.0384 20.0888 37.2384 19.5888C40.6384 19.1888 41.9384 18.4888 43.4384 16.0888L45.3384 13.0888L41.4384 13.3887C36.5384 13.8887 36.2384 12.3887 40.9384 10.1887C42.8384 9.28873 44.4384 7.88876 44.4384 7.08876C44.4384 6.28876 45.1384 5.58876 45.9384 5.58876C46.7384 5.58876 47.4384 4.88876 47.4384 4.08876C47.4384 1.98876 48.7384 2.18878 50.1384 4.48878C51.2384 6.28878 52.2384 6.38874 60.7384 5.88874C65.9384 5.58874 71.7384 5.58878 73.7384 5.98878C78.1384 6.78878 84.3384 12.6888 88.4384 19.9888C91.2384 24.8888 91.9384 25.4888 95.2384 25.7888C98.7384 26.0888 98.9384 26.2887 99.2384 29.8887C99.4384 32.3887 98.9384 34.4887 97.7384 36.1887C96.0384 38.5887 95.9384 39.3888 97.0384 44.7888C97.7384 48.0888 98.6384 53.9888 98.9384 57.9888L99.6384 65.2888L103.338 66.1887C106.638 66.9887 106.938 67.3887 107.238 70.8887C107.638 75.3887 106.438 77.0888 102.438 77.9888C99.8384 78.4888 99.4384 78.9887 99.4384 81.6887C99.4384 83.3887 98.7384 89.0888 97.8384 94.2888C96.3384 102.989 96.3384 103.789 97.9384 105.589C99.0384 106.789 99.4384 108.689 99.2384 111.289C98.9384 114.889 98.7384 115.089 95.4384 115.389C92.2384 115.689 91.6384 116.289 89.6384 120.389C85.8384 128.089 83.3384 130.489 77.3384 132.089C70.0384 134.089 58.5384 133.789 49.4384 131.489Z" fill="#8EA68D"/>
<path d="M77.0384 130.389C81.6384 126.789 84.1384 123.489 87.0384 117.389C89.4384 112.389 90.0384 111.889 91.7384 112.689C93.9384 113.989 96.4384 113.189 96.4384 111.289C96.4384 110.489 95.5384 108.689 94.4384 107.289C92.4384 104.789 92.4384 104.389 93.8384 98.8888C94.6384 95.6888 95.6384 90.5888 95.9384 87.5888C97.2384 75.9888 97.2384 75.8888 100.438 75.1888C102.138 74.8888 103.738 73.9888 104.038 73.0888C104.838 70.9888 102.638 68.5888 99.8384 68.5888C97.8384 68.5888 97.5384 67.9888 96.9384 62.8888C96.5384 59.6888 95.3384 52.6888 94.3384 47.2888C92.3384 37.4888 92.3384 37.4888 94.4384 34.5888C95.5384 33.0888 96.4384 30.9888 96.4384 30.0888C96.4384 28.6888 95.8384 28.3888 93.0384 28.8888C89.6384 29.3888 89.4384 29.1888 86.4384 23.9888C82.9384 17.6888 77.2384 11.0888 72.9384 8.38878L69.9384 6.48882L74.6384 6.78881C78.8384 7.08881 79.4384 6.78881 80.9384 4.28881C83.0384 0.688809 84.8384 1.28877 85.2384 5.68877C85.5384 8.68877 86.0384 9.28882 90.1384 10.9888C92.6384 11.9888 96.6384 14.3888 99.1384 16.2888L103.538 19.6888L107.038 17.5888C109.938 15.7888 110.538 15.6888 111.038 16.8888C111.338 17.6888 110.838 19.7888 110.038 21.3888C108.538 24.2888 108.538 24.5888 111.838 29.3888C113.638 32.0888 116.238 36.8888 117.438 39.8888C119.638 45.2888 119.938 45.4888 123.338 45.2888C128.138 44.9888 128.838 47.8888 124.438 50.0888C121.938 51.3888 121.338 52.1888 121.838 53.8888C122.138 55.0888 122.438 60.6888 122.438 66.2888V76.3888L125.538 77.4888C129.938 78.9888 129.138 81.9888 124.238 82.3888C120.938 82.6888 120.538 82.9888 119.538 87.1888C118.938 89.5888 117.338 93.9888 116.038 96.8888L113.738 102.189L116.238 105.389C119.438 109.489 118.138 111.689 113.438 109.889C110.638 108.789 110.338 108.989 106.338 114.289C100.438 121.889 91.1384 127.989 80.5384 131.189C74.2384 133.089 73.7384 132.989 77.0384 130.389Z" fill="#778B77"/>
<path d="M44.7384 129.689C34.8384 126.289 25.3384 118.189 18.9384 107.689C15.5384 101.989 15.2384 101.789 12.0384 102.289C7.33836 102.989 6.33839 100.889 9.93839 97.8888L12.6384 95.4888L11.0384 90.2888C9.03836 83.7888 7.43839 75.2888 7.43839 71.0888C7.43839 68.2888 7.03838 67.8888 3.73838 66.9888C-1.16162 65.7888 -1.26164 63.3887 3.53836 62.1887C7.03836 61.2887 7.23841 61.0888 7.83841 55.8888C8.13841 52.9888 9.43836 47.6887 10.5384 44.1887L12.6384 37.8888L9.93839 35.1887C5.83839 31.0887 7.23839 29.3888 13.4384 30.9888C15.5384 31.5888 16.4384 30.9887 19.4384 27.1887C23.9384 21.3887 32.8384 14.1888 39.5384 11.0888C44.6384 8.78877 44.7384 8.58879 44.8384 4.48879C44.9384 -1.01121 46.8384 -1.51122 49.3384 3.28878C51.1384 6.98878 51.4384 7.18878 55.6384 6.78878L59.9384 6.48879L55.9384 8.78878C53.7384 10.0888 49.8384 13.8887 47.3384 17.1887C43.2384 22.5887 42.5384 23.1888 40.4384 22.3888C35.4384 20.5888 33.7384 24.0887 37.5384 28.1887L39.5384 30.3888L37.6384 37.1887C36.5384 40.9887 35.3384 46.0888 34.9384 48.5888C33.8384 55.9888 33.5384 56.5888 30.4384 56.5888C25.3384 56.5888 26.2384 60.2888 32.1384 63.0888C32.2384 63.1888 32.6384 69.4888 32.9384 77.2888L33.4384 91.3888L30.9384 92.9888C29.5384 93.8888 28.4384 95.4888 28.4384 96.5888C28.4384 98.1888 29.1384 98.5888 32.2384 98.5888H36.1384L37.3384 104.189C39.0384 111.389 46.7384 126.889 50.1384 129.589C53.2384 131.989 51.7384 132.089 44.7384 129.689Z" fill="#778B77"/>
</svg>
