<svg width="122" height="114" viewBox="0 0 122 114" fill="none" xmlns="http://www.w3.org/2000/svg">
<path d="M26.6039 94.3994C19.6539 93.3494 12.2539 90.8495 7.00395 87.8495C5.55395 86.9995 4.35395 86.0494 4.35395 85.7494C4.35395 85.3994 3.55394 83.5494 2.55394 81.6494C-1.84606 72.8494 -0.496053 62.7994 6.10395 55.4994C8.70395 52.5994 8.70395 52.7994 6.85395 47.6494C4.05395 39.9494 7.95394 32.2494 15.5539 30.3994C20.9539 29.0494 20.4539 29.4494 21.4039 25.6494C24.6039 12.7994 33.9539 3.09946 45.5039 0.599456C51.8539 -0.750544 58.9539 0.199419 65.5039 3.24942C68.8039 4.79942 70.104 5.79942 73.604 9.49942C77.304 13.4494 77.854 13.8494 78.904 13.4494C81.304 12.5994 85.854 12.3494 88.704 12.8994C94.954 14.1994 100.904 18.6494 103.554 23.9994C104.754 26.3494 104.854 27.1495 104.854 32.5995C104.854 39.1995 104.204 42.3495 102.054 46.8495C99.4039 52.2495 95.754 56.4494 89.454 61.2494L86.3039 63.6494L86.0539 67.3994C85.5539 76.7994 78.804 82.8994 68.904 82.8994H65.604L63.3539 85.7995C59.8039 90.2495 54.6539 93.1995 48.1539 94.4495C45.3039 94.9995 30.2539 94.9494 26.6039 94.3994Z" fill="#96A784"/>
<path d="M50.3539 113.099C45.4039 112.599 35.7539 110.849 30.2039 109.399C12.5539 104.899 3.10393 96.9493 4.00393 87.3993C4.10393 85.8493 4.05393 84.1993 3.75393 83.7493C3.50393 83.2493 4.75393 83.8493 6.55393 84.9993C8.35393 86.1993 9.80393 87.3993 9.85393 87.6993C9.85393 87.9993 10.2039 88.5493 10.6039 88.8993C11.2039 89.3993 11.3539 89.3493 11.3539 88.6993C11.3539 87.9493 11.5039 87.9493 13.2539 88.6993C14.2539 89.1493 16.1539 89.8493 17.5039 90.2993C20.7039 91.3993 20.7539 92.6493 17.5039 92.2493C16.2039 92.0993 15.0539 91.7493 14.9539 91.4493C14.8539 91.1493 14.4039 90.8993 14.0039 90.8993C12.8039 90.8993 15.3039 92.6492 19.2039 94.5992C23.7539 96.8492 29.7039 98.6993 35.9539 99.7493C45.5039 101.399 67.2539 100.549 77.7539 98.1493C85.5039 96.3493 96.7539 90.8993 102.454 86.1493C107.104 82.3493 111.254 76.7993 113.204 71.8493C114.104 69.5493 114.804 67.1493 114.854 66.5493C114.854 65.7493 115.154 65.3993 115.854 65.3993C117.254 65.3993 117.154 66.6993 115.354 71.8993L113.854 76.2993L116.854 79.3493C118.504 80.9993 120.204 83.1493 120.654 84.1493C121.654 86.5493 121.654 90.7493 120.704 93.0493C117.004 101.799 102.404 109.049 81.8539 112.149C76.7539 112.949 55.4539 113.549 50.3539 113.099Z" fill="black" fill-opacity="0.06"/>
<path d="M40.854 102.099C23.504 99.8992 13.704 95.7493 6.15396 87.3993C3.80396 84.7493 3.65396 83.3493 6.00396 84.8993C15.054 90.9993 30.954 94.6493 42.754 93.3993C51.754 92.4993 56.604 90.2493 61.354 84.9993L64.454 81.4993L68.754 81.2993C73.904 81.0493 77.054 79.7493 80.104 76.6493C83.154 73.6493 84.504 70.3993 84.554 65.9493L84.604 62.2993L89.204 58.8493C95.854 53.7993 99.854 48.4493 102.304 41.0493C103.554 37.2993 103.754 29.2993 102.654 24.7993C102.304 23.1993 102.054 21.8993 102.154 21.8993C102.654 21.8993 104.954 27.2993 105.654 30.0493C106.454 32.9993 106.404 37.4993 105.604 40.2493C105.304 41.1493 105.954 42.0993 108.954 45.2493C113.404 49.8993 115.054 52.5993 116.154 56.8993C118.804 67.1993 113.754 79.7993 103.754 87.8493C98.004 92.5493 86.804 97.8993 79.254 99.6493C73.604 100.949 62.804 101.949 52.604 102.149C47.104 102.249 41.804 102.199 40.854 102.099Z" fill="#7A937B"/>
</svg>
