<svg width="195" height="142" viewBox="0 0 195 142" fill="none" xmlns="http://www.w3.org/2000/svg">
<path d="M107.723 133.704C92.8229 130.704 86.7229 127.204 84.7229 120.354C83.9729 117.854 83.9729 116.954 84.4729 113.504C85.5229 106.854 88.9229 99.1541 93.2229 93.6541C97.1729 88.6041 104.123 84.0041 111.773 81.4041C115.423 80.1041 116.423 80.0041 123.273 79.9541C130.223 79.9541 131.073 80.0541 135.173 81.4041C139.423 82.8041 144.523 85.6041 145.973 87.4041C146.473 88.0041 146.723 89.6041 146.723 92.3541C146.773 95.7041 146.523 96.9041 145.523 98.9541C143.773 102.554 140.923 105.454 135.773 108.804C128.073 113.904 127.173 115.054 125.223 122.954C123.723 129.204 123.523 129.654 121.173 132.604L119.473 134.704L115.873 134.654C113.873 134.654 110.223 134.204 107.723 133.704Z" fill="#D7C8B5"/>
<path d="M54.2729 69.2541C44.4729 67.1541 31.9228 62.7041 25.8228 59.1041C23.8728 57.9541 21.7229 56.0042 19.5229 53.4042C16.6229 49.9542 16.0229 49.4542 14.3729 49.3042C12.5729 49.1542 12.5229 49.1041 12.5229 47.2041C12.5229 46.1541 12.7729 45.1041 13.0229 44.9541C13.3229 44.8041 13.5229 44.2042 13.5229 43.6542C13.5229 42.4542 15.4228 39.0041 18.0728 35.4541C21.7728 30.4041 29.4229 24.0541 36.2729 20.2541C43.6729 16.1041 63.9728 6.00415 68.8728 4.05415C78.0728 0.304152 79.9229 -0.0458667 91.0229 0.00413334C100.323 0.00413334 101.073 0.0541395 107.023 1.60414C119.373 4.75414 130.323 10.6042 132.873 15.4042C133.523 16.5542 133.723 18.1541 133.723 21.4541C133.723 28.2541 132.323 30.7042 120.723 43.6542C111.623 53.8042 107.723 56.8542 97.2729 61.9042C90.9229 65.0042 86.2229 66.7542 79.5229 68.5542C72.8729 70.3042 60.8729 70.6041 54.2729 69.2541ZM14.8729 44.8042C14.6729 44.1542 14.6228 44.2042 14.5728 45.0542C14.5728 45.6542 14.3229 46.3041 14.0229 46.4541C13.7729 46.6041 13.5229 47.0041 13.5229 47.3541C13.5229 47.6541 13.8728 47.4042 14.3228 46.8042C14.7228 46.2042 14.9729 45.3042 14.8729 44.8042ZM84.9229 1.35414C84.4229 1.25414 83.6229 1.25414 83.1729 1.35414C82.6729 1.50414 83.0729 1.60414 84.0229 1.60414C84.9729 1.60414 85.3729 1.50414 84.9229 1.35414ZM98.4229 1.35414C97.9229 1.25414 97.1229 1.25414 96.6729 1.35414C96.1729 1.50414 96.5729 1.60414 97.5229 1.60414C98.4729 1.60414 98.8729 1.50414 98.4229 1.35414ZM91.6729 0.854139C91.0229 0.754139 90.0229 0.754139 89.4229 0.854139C88.7729 0.954139 89.2729 1.05415 90.5229 1.05415C91.7729 1.05415 92.2729 0.954139 91.6729 0.854139Z" fill="#D7C8B5"/>
<path d="M116.523 134.004C116.523 133.554 116.823 133.204 117.223 133.204C117.973 133.204 120.923 129.854 121.873 127.954C122.173 127.404 123.023 124.504 123.723 121.454C125.673 113.554 126.573 112.404 134.273 107.304C141.773 102.404 145.173 97.7041 145.123 92.4041C145.123 90.9041 144.823 89.3041 144.423 88.8541C143.073 87.2041 137.973 84.3041 133.973 82.9541C130.223 81.7041 129.073 81.5041 123.523 81.5041C118.023 81.5041 116.823 81.6541 113.273 82.9041C105.673 85.5041 98.7229 90.1041 94.7229 95.1541C90.5729 100.354 86.2729 110.354 85.9229 115.754L85.7729 117.604L79.5229 117.804C62.6729 118.404 44.3729 114.604 25.7729 106.654C23.3229 105.554 20.9729 104.704 20.6729 104.704C20.3229 104.704 20.0229 104.504 20.0229 104.204C20.0229 103.954 19.6729 103.704 19.2729 103.704C18.8229 103.704 16.8229 102.604 14.7729 101.204C12.7229 99.8541 10.9229 98.7041 10.7729 98.7041C9.92286 98.7041 5.42286 94.2541 3.62286 91.6041C1.77286 88.9041 0.0228577 83.0041 0.0228577 79.3541C0.0228577 75.4541 2.87285 67.6541 8.67285 55.7041C11.7729 49.2041 12.5229 48.2541 14.7229 47.6541C16.9729 47.0541 17.5228 47.4041 21.6228 52.6041C23.2228 54.6041 25.1729 56.3541 27.1729 57.5041C33.7729 61.3541 47.5729 66.2041 57.2729 68.0041C68.2229 70.0041 81.2729 67.4541 95.7729 60.4041C106.223 55.3541 110.123 52.3041 119.223 42.1541C126.723 33.8041 129.173 30.5541 130.873 27.1541C132.173 24.3541 132.623 20.7041 131.873 18.1041C131.273 15.7541 132.773 16.4041 136.173 19.8541C140.173 23.9041 143.873 29.3041 147.023 35.6541C148.373 38.4041 149.523 40.8041 149.523 40.9541C149.523 42.0041 151.773 46.2041 152.473 46.4541C153.673 46.8041 156.823 54.1041 159.373 62.4541C159.773 63.8541 160.473 65.8541 160.873 66.9541C161.373 68.2541 161.723 71.5541 161.873 76.3041C162.123 83.3041 162.073 83.7541 160.823 87.0541C159.323 91.0041 155.573 96.0541 153.823 96.5041L152.623 96.8041L154.073 99.6041C158.223 108.004 159.723 117.904 157.473 122.304C156.073 125.054 154.073 126.804 149.823 128.854C140.773 133.354 136.873 134.254 125.673 134.554C117.473 134.804 116.523 134.704 116.523 134.004Z" fill="#A5A0A0"/>
<path d="M121.073 141.654C107.173 140.554 95.1729 136.654 88.6729 131.104C85.0229 127.954 82.6729 126.954 75.7729 125.404C57.3229 121.304 43.5729 116.754 32.7729 111.304C15.4729 102.554 4.52288 95.654 2.62288 92.304C0.472878 88.404 -0.57714 81.354 0.32286 76.754C0.82286 74.254 1.52287 74.954 1.52287 78.104C1.57287 86.704 5.32287 92.804 14.1729 98.604C19.6229 102.254 28.7229 106.304 38.9729 109.704C53.6229 114.554 61.9729 116.104 75.5729 116.554L85.3728 116.854L86.0229 119.354C87.3729 124.754 93.0729 128.554 103.673 131.204C120.673 135.504 137.123 133.954 149.523 126.954C153.523 124.704 154.323 124.004 155.873 121.304C157.073 119.304 157.123 118.804 156.873 115.054C156.623 111.104 155.423 107.004 153.023 101.604C152.473 100.304 151.773 99.104 151.523 98.954C150.773 98.504 150.923 95.704 151.673 95.704C152.423 95.704 156.473 91.604 157.573 89.704C158.023 89.004 158.873 87.154 159.473 85.554C160.523 82.954 160.623 82.154 160.423 76.304C160.123 69.604 159.723 67.754 156.223 58.354C154.473 53.654 153.873 52.104 152.723 49.354C152.323 48.504 152.023 47.554 152.023 47.254C152.023 46.554 161.723 51.354 167.123 54.754C177.673 61.304 188.273 71.704 192.823 79.954C194.423 82.804 194.723 83.854 194.723 86.404C194.773 91.704 191.373 97.004 185.273 101.204C183.323 102.554 172.473 108.204 171.873 108.204C171.723 108.204 170.573 108.654 169.323 109.154L167.073 110.154L169.273 113.454C173.773 120.154 173.623 124.454 168.723 129.704C163.773 135.004 152.123 139.904 141.373 141.154C134.923 141.954 127.273 142.104 121.073 141.654Z" fill="black" fill-opacity="0.06"/>
</svg>
