<svg width="150" height="229" viewBox="0 0 150 229" fill="none" xmlns="http://www.w3.org/2000/svg">
<path d="M43.185 127.2C31.735 125.95 18.085 120.95 9.18497 114.8C3.13497 110.6 3.43497 110.7 3.43497 112.5C3.43497 114.3 2.18495 114.55 1.73495 112.9C1.28495 111.05 1.38494 110.5 2.28494 110.5C2.98494 110.5 2.93495 110.3 1.98495 109.3C0.484954 107.7 -0.265009 102.3 0.084991 95.25C0.634991 84.25 4.38497 74.9 12.935 63.5C19.235 55.05 19.735 54.1 20.185 49.5C20.935 41.45 23.185 34.4 27.335 26.95C33.585 15.8 43.735 7.49999 56.835 2.79999C62.085 0.949988 68.135 0 75.185 0C93.435 0 109.085 7.85 119.035 22C125.185 30.75 128.035 38.5 130.185 52.25C130.385 53.35 131.185 55.3 132.035 56.6C133.435 58.85 133.485 59.15 133.185 62.35C132.285 71.3 129.285 79.05 124.485 84.75C119.185 91.1 119.435 90.6 118.635 95.85C117.085 106.45 111.235 113.1 101.135 115.75C98.035 116.55 88.685 116.75 85.185 116.05C82.835 115.6 82.035 115.95 76.635 119.6C68.585 124.95 62.085 127 51.935 127.25C48.235 127.35 44.285 127.3 43.185 127.2Z" fill="#78AB98"/>
<path d="M65.685 228.45C54.135 227.25 40.585 222.45 33.085 216.85C24.485 210.45 21.635 201.95 25.435 194.2C29.335 186.25 41.585 178.5 55.435 175.2C57.235 174.75 59.435 174.4 60.335 174.4C61.385 174.4 61.935 174.15 61.935 173.7C61.935 173.3 62.185 173 62.435 173C62.735 173 62.935 175.15 62.935 178.45C62.935 184.7 62.035 188.4 59.135 193.7L57.385 196.95L58.685 197.8C59.685 198.45 63.885 199.2 68.135 199.45C68.335 199.5 70.085 201.1 71.985 203C73.835 204.95 75.785 206.5 76.185 206.5C76.635 206.5 78.385 205.05 80.085 203.25L83.135 200H87.535C91.335 200 92.035 199.85 93.135 198.9L94.435 197.75L91.885 192.55C90.535 189.7 89.185 186.45 88.935 185.3C88.185 181.85 87.735 173 88.335 173C88.585 173 88.935 173.3 89.085 173.65C89.235 174.1 90.535 174.45 92.535 174.65C98.885 175.25 111.285 179.85 116.635 183.6C119.185 185.4 123.985 190.15 125.185 192.05C126.735 194.45 127.935 198.65 127.935 201.55C127.935 207 124.035 212.9 117.235 217.75C105.585 226 84.385 230.4 65.685 228.45Z" fill="black" fill-opacity="0.06"/>
<path d="M74.0349 207.5C73.2349 207 71.7349 205.6 70.7349 204.35C68.5849 201.7 66.1849 200.65 61.5349 200.25C57.4349 199.9 55.9349 198.95 56.0349 196.7C56.0849 195.75 56.2349 195 56.4349 195C56.6349 195 56.7849 194.7 56.7849 194.35C56.7849 194 57.5849 192.3 58.5849 190.6C59.5849 188.9 60.2849 187.5 60.1349 187.5C60.0349 187.5 60.2349 186.9 60.5849 186.15C60.9849 185.35 61.3349 183.05 61.4349 181C61.4849 178.95 61.6349 176.6 61.7349 175.75C61.8349 174.95 62.0349 172.55 62.2349 170.5L62.5849 166.7L59.2349 164.55C55.2349 161.9 49.5849 156 47.3849 152.1C46.4849 150.55 45.4349 148.85 45.0349 148.4C44.3349 147.6 44.3849 147.5 45.2349 147.5C47.4349 147.55 58.6349 149 60.5849 149.55C61.9349 149.9 67.0349 150.05 74.9349 150C89.1849 149.85 89.4349 149.85 88.4849 150.45C87.9349 150.8 87.9349 152.8 88.3849 162.25C88.7349 168.55 89.0849 173.85 89.2849 174.1C89.4349 174.4 89.6849 176.55 89.7849 178.9C89.9349 181.3 90.4349 184.4 90.9349 185.75C92.5849 190.35 93.1849 191.75 93.4849 192C94.0849 192.5 95.4349 195.5 95.0849 195.5C94.8349 195.5 94.9849 195.7 95.3849 195.95C96.2849 196.5 95.7349 199.6 94.5849 200.55C94.0849 201 92.0849 201.3 89.1349 201.35L84.4849 201.5L82.5349 203.5C81.4349 204.55 80.6349 205.55 80.7849 205.65C81.1849 206.05 77.9349 208.1 76.6849 208.25C76.0349 208.3 74.8349 207.95 74.0349 207.5ZM63.9349 151.8C63.9349 151.05 62.8849 150.5 61.3849 150.5C60.0849 150.5 60.1849 151.25 61.5849 151.9C63.1349 152.65 63.9349 152.6 63.9349 151.8Z" fill="#9F837F"/>
<path d="M86.7349 151.55C86.2349 151.35 81.4849 151.25 76.2349 151.3C70.9849 151.35 65.8849 151.2 64.9349 151C61.8849 150.3 57.5349 149.95 58.6849 150.55C59.5849 150.95 59.5349 151 58.4349 150.75C57.7349 150.65 56.8349 150.5 56.4349 150.5C55.8849 150.5 55.8349 150.4 56.2849 150.1C56.6349 149.85 54.6849 149.65 51.8849 149.65C48.0849 149.6 46.6849 149.4 46.0349 148.8C45.5349 148.4 43.1349 147.45 40.6349 146.75C31.0849 143.95 23.0849 140.25 17.7349 136.1C13.5849 132.8 7.78491 125.9 5.43492 121.5C2.63492 116.05 -0.115097 106 1.2349 106C1.3849 106 2.78489 107.1 4.28489 108.5C10.3849 114.1 18.4349 118.55 28.7849 122.05C36.8349 124.8 41.9849 125.65 49.9349 125.7C60.2849 125.7 66.5849 123.75 75.7349 117.7C78.4349 115.95 81.1849 114.35 81.7849 114.2C82.4349 114 84.3349 114.15 86.0849 114.45C96.0849 116.2 104.835 113.95 110.685 108.15C114.435 104.5 116.185 100.7 117.135 94.35C117.935 89.1 117.685 89.6 122.985 83.25C127.985 77.35 131.335 68.45 131.585 60.55C131.635 58.6 131.785 57 131.935 57C132.085 57 132.485 57.45 132.785 57.95C133.135 58.5 134.835 60.7 136.635 62.9C145.335 73.7 150.435 88.8 149.685 101.35C149.135 110.95 145.635 121.05 140.485 128C138.335 130.85 132.835 135.95 129.035 138.6C126.035 140.65 117.485 144.65 112.685 146.2C107.885 147.8 100.135 149.3 92.8849 150.05C88.7349 150.5 87.5849 150.8 87.7849 151.35C88.0849 152.1 88.0849 152.1 86.7349 151.55ZM69.3349 150.65C68.8349 150.55 67.9349 150.55 67.3349 150.65C66.6849 150.75 67.0849 150.85 68.1849 150.85C69.2849 150.9 69.7849 150.8 69.3349 150.65ZM85.6849 150.5L86.6849 150.05H85.6849C85.1349 150.05 83.7849 150.25 82.6849 150.45L80.6849 150.9H82.6849C83.7849 150.9 85.1349 150.75 85.6849 150.5Z" fill="#679787"/>
</svg>
