<svg width="225" height="333" viewBox="0 0 225 333" fill="none" xmlns="http://www.w3.org/2000/svg">
<path d="M47.4736 171.343C46.5736 170.243 45.9236 166.443 45.8736 162.143V158.093L42.5237 159.293C36.6737 161.343 27.2237 160.743 19.2737 157.843C14.5737 156.143 7.87365 151.843 3.82365 147.993L0.473649 144.743L0.12365 138.993C-0.526349 127.993 1.37365 118.293 6.12365 108.243C8.72365 102.843 10.3737 100.443 15.6237 94.6933C17.8237 92.2933 19.5737 90.0933 19.5237 89.7933C19.5237 89.4933 18.9736 86.7933 18.3236 83.7433C16.8736 76.5433 16.7237 66.4433 18.0237 61.0933C22.5237 42.4933 34.5236 29.5933 52.8736 23.6933C55.2236 22.9433 57.2736 22.1933 57.4736 22.0433C57.6736 21.8933 57.3736 20.4933 56.8736 18.9933C55.6236 15.3433 55.6237 13.2933 56.9237 12.0933C59.4737 9.69331 70.0237 9.3433 75.5237 11.4433C77.0737 12.0933 79.5237 13.3433 80.9237 14.2933C82.3237 15.2433 83.8237 15.9933 84.2237 15.9933C84.6237 15.9933 86.2236 14.8933 87.7736 13.5433C94.1736 8.0433 101.924 4.0933 110.874 1.7433C117.924 -0.106699 130.674 -0.556699 137.624 0.743301C146.074 2.2933 154.524 5.6933 161.074 10.1433C164.824 12.6433 171.374 18.8933 174.074 22.4933C180.024 30.3433 184.474 40.8933 185.674 50.1433C185.974 52.3433 186.424 53.0933 189.424 56.3433C193.274 60.6433 196.624 66.8433 197.124 70.7433C197.724 75.1433 197.574 74.9933 201.374 74.9933C205.424 74.9933 210.174 76.3433 213.524 78.4433C215.524 79.7433 215.874 80.1933 215.874 81.6433C215.874 83.5433 215.374 84.3433 210.474 90.0933L206.774 94.4933L209.474 97.8433C210.974 99.7433 212.774 102.143 213.524 103.243C214.274 104.343 215.174 105.693 215.624 106.243C216.224 107.143 216.274 107.593 215.674 109.543C213.674 116.143 207.274 125.643 200.324 132.243C195.324 137.043 191.174 140.043 185.074 143.293L180.524 145.693L180.774 153.793C181.024 161.543 180.974 161.893 179.924 162.943C179.074 163.793 178.274 163.993 175.674 163.993C166.524 163.993 154.974 160.093 149.974 155.343L148.324 153.743L139.224 153.493L130.124 153.243L129.974 151.843C129.874 151.093 130.424 148.843 131.174 146.843C132.374 143.793 132.574 142.493 132.624 138.393C132.624 135.743 132.474 133.443 132.324 133.293C131.624 132.543 130.124 133.893 125.774 139.193C123.224 142.243 119.624 146.443 117.824 148.493C115.124 151.543 114.324 152.793 113.774 154.993L113.124 157.743L108.624 157.793C105.524 157.793 103.124 158.143 100.874 158.843C91.9736 161.693 78.5736 163.993 71.0736 163.993C68.1736 163.993 67.5237 164.193 65.9237 165.443C60.8737 169.393 54.8236 171.993 50.7236 171.993C49.1236 171.993 47.7736 171.743 47.4736 171.343ZM58.1236 114.793C60.6236 114.393 63.8737 113.593 65.4237 113.043C73.9737 109.793 81.6236 101.693 83.5736 93.8933C83.8236 92.7433 83.2236 93.1933 80.0236 96.4433C69.7236 106.793 58.8736 109.693 40.8736 106.993C37.3236 106.493 34.4237 106.243 34.1737 106.493C33.4737 107.193 35.1736 109.343 37.6236 110.793C40.6736 112.543 44.4736 113.943 48.3736 114.743C52.6236 115.593 52.8236 115.593 58.1236 114.793ZM135.424 59.9433C139.274 58.9933 142.774 55.4933 145.174 50.2933C146.374 47.5933 146.424 47.3433 145.674 46.5933C145.074 45.9933 144.124 45.7933 142.174 45.8433C135.124 46.1433 129.074 50.5933 126.224 57.5933C125.324 59.7433 125.524 60.0433 128.624 60.5433C130.674 60.8933 132.324 60.7433 135.424 59.9433Z" fill="#96A784"/>
<path d="M107.624 332.143C98.0737 331.443 86.3237 329.193 77.8737 326.443C71.8737 324.493 58.9737 318.193 55.3237 315.393C44.1737 306.893 38.7737 297.543 39.5737 288.193C40.7237 274.093 53.2237 262.493 76.3737 253.843C80.3737 252.343 84.8237 250.843 86.2737 250.443C87.7237 250.093 88.8737 249.543 88.8737 249.143C88.8737 248.793 89.1237 248.493 89.3737 248.493C90.0237 248.493 90.0237 255.593 89.3737 262.093C88.7737 268.143 87.2737 272.593 83.4737 279.143C79.6237 285.843 79.1237 287.293 80.1237 288.843C81.8237 291.393 82.8237 291.643 91.1237 291.543L98.7737 291.443L100.724 293.393C101.774 294.443 103.674 296.543 104.974 298.093C107.824 301.443 110.224 302.743 112.774 302.243C114.174 301.993 115.624 300.893 119.274 297.193C125.674 290.693 126.024 290.493 132.074 290.493C134.774 290.493 137.874 290.243 138.974 289.893C141.424 289.193 143.524 286.793 143.074 285.293C142.924 284.743 141.024 281.193 138.874 277.493C136.724 273.793 134.624 269.493 134.224 267.993C133.774 266.493 133.324 262.343 133.174 258.743C132.974 255.193 132.724 250.743 132.574 248.893C132.324 246.093 132.424 245.493 133.024 245.493C133.424 245.493 133.874 245.893 134.024 246.443C134.174 247.143 134.924 247.443 137.174 247.743C140.924 248.193 151.724 250.593 155.924 251.893C168.924 255.993 179.524 262.093 187.624 270.193C192.924 275.493 195.324 280.143 196.374 286.943C197.674 295.193 194.174 303.343 186.024 310.993C174.024 322.243 153.824 329.893 130.874 331.943C126.074 332.343 112.224 332.493 107.624 332.143ZM86.7737 293.143C86.2737 293.043 85.3737 293.043 84.7737 293.143C84.1237 293.243 84.5237 293.343 85.6237 293.343C86.7237 293.393 87.2237 293.293 86.7737 293.143Z" fill="black" fill-opacity="0.06"/>
<path d="M105.824 302.043C104.874 301.243 103.424 299.593 102.574 298.393C99.6237 294.093 96.6736 292.193 93.7736 292.793C93.1236 292.893 90.2737 292.993 87.4237 293.043C82.8237 293.043 82.0737 292.893 80.5737 291.893C79.6737 291.293 78.7237 290.293 78.4737 289.743C77.8737 288.443 78.1736 285.243 79.0236 283.593C79.4236 282.843 81.3237 279.143 83.3237 275.393C85.2737 271.593 86.8237 268.493 86.6737 268.493C86.5737 268.493 86.7737 267.443 87.1737 266.143C87.5737 264.843 88.0237 261.193 88.1237 257.993C88.2737 254.843 88.4737 251.443 88.6237 250.493C88.8237 248.843 89.0737 245.193 89.6237 234.493C89.7237 232.143 89.9737 226.743 90.1237 222.493C90.2737 218.243 90.5237 213.543 90.6737 212.143C90.9237 209.643 91.0237 209.493 92.3237 209.493C93.0737 209.493 94.8736 210.043 96.2736 210.743C100.924 212.993 108.574 216.343 110.374 216.943C113.424 217.893 115.224 219.343 116.324 221.643C117.274 223.643 117.474 225.393 118.124 239.293C118.524 247.793 119.124 258.143 119.374 262.243C120.274 275.343 120.224 284.393 119.174 287.193C117.624 291.393 109.474 303.493 108.174 303.493C107.874 303.493 106.824 302.843 105.824 302.043Z" fill="#9F837F"/>
<path d="M96.0236 204.143C92.1736 203.443 91.4236 203.193 91.2736 202.343C91.1736 201.643 90.1236 200.993 87.6236 199.993C82.7736 198.143 80.3236 196.843 75.4236 193.593C71.4736 190.943 71.1736 190.843 70.6736 191.743C69.2736 194.193 65.5236 197.593 62.6736 198.993C59.7736 200.393 50.8236 202.993 48.8236 202.993C48.2736 202.993 47.4236 202.293 46.8736 201.393C46.0236 200.043 45.8736 198.843 45.8736 194.493V189.243L40.5736 187.893C25.9736 184.143 12.9736 173.693 6.22363 160.193C4.57363 156.893 1.12363 146.893 0.623634 143.993L0.223633 141.743L4.47363 145.743C12.9736 153.743 22.7236 158.293 32.4236 158.843C37.9736 159.193 41.5236 158.343 45.3236 155.743L47.6236 154.243V160.993C47.6236 170.693 48.3736 171.643 54.6236 169.493C58.0236 168.343 61.3236 166.493 64.1736 164.143C66.0736 162.593 66.4736 162.493 69.9236 162.493C77.7736 162.493 84.9736 161.293 96.6236 158.093C101.724 156.743 104.024 156.343 107.374 156.343C111.924 156.343 112.374 156.143 112.374 153.843C112.374 151.893 113.024 150.793 116.574 146.743C118.274 144.843 121.724 140.743 124.274 137.693C129.724 131.043 132.524 129.343 133.674 131.893C135.124 135.343 134.624 142.943 132.574 148.393C131.924 150.143 131.374 151.693 131.374 151.793C131.374 151.893 135.424 151.993 140.374 151.993H149.374L151.224 153.693C155.624 157.593 162.074 160.393 169.724 161.743C178.574 163.293 179.374 162.793 179.374 155.943C179.374 153.393 179.124 149.893 178.774 148.093C178.274 145.293 178.274 144.743 178.874 144.393C179.274 144.143 182.074 142.593 185.074 140.943C191.474 137.443 194.774 134.943 199.924 129.793C206.274 123.493 212.224 114.393 214.374 107.793C214.974 105.943 215.024 105.893 215.724 106.793C218.674 110.643 221.874 119.193 223.374 126.843C225.774 139.343 223.974 152.243 218.074 164.343C213.774 173.143 208.574 179.893 201.774 185.593C192.074 193.743 181.624 198.593 169.424 200.593C165.374 201.243 162.924 201.893 162.524 202.393C161.974 203.043 160.924 203.093 155.524 202.843C151.974 202.643 148.624 202.343 148.024 202.193C147.174 201.943 146.874 202.093 146.874 202.693C146.874 203.193 146.424 203.493 145.674 203.493C144.474 203.493 144.474 203.393 144.974 201.943C145.524 200.293 145.024 199.543 143.374 199.493C142.974 199.493 140.374 198.693 137.674 197.793C132.224 195.893 131.074 195.993 130.774 198.343C130.624 199.543 130.124 199.893 126.574 201.293C124.324 202.143 120.724 203.243 118.574 203.743C112.874 204.943 101.774 205.143 96.0236 204.143Z" fill="#7A937B"/>
<path d="M48.4237 116.443C39.4237 115.093 32.3737 110.893 32.3737 106.893C32.3737 104.443 32.9237 104.243 37.4737 104.893C51.8737 107.043 57.1737 106.993 63.9237 104.493C70.8737 101.993 77.9737 96.7433 82.0237 91.1433C83.7737 88.6933 84.7237 88.4433 85.1737 90.2933C86.8737 97.0433 79.1237 108.643 69.8237 113.143C63.8237 116.093 55.0237 117.443 48.4237 116.443Z" fill="#7A937B"/>
<path d="M124.374 61.0933L123.274 60.1933L124.274 57.3933C127.274 48.9433 133.324 44.5433 142.424 44.3433C147.224 44.2433 148.074 44.7933 147.724 47.8433C147.124 53.0933 142.224 59.5933 137.624 61.1433C134.124 62.3433 125.874 62.3433 124.374 61.0933Z" fill="#7A937B"/>
<path d="M108.474 303.244L106.824 302.494L109.724 298.644C113.774 293.294 116.624 288.644 117.624 285.694C118.624 282.894 118.724 275.794 117.874 263.494C117.574 259.494 117.024 249.294 116.624 240.794C115.974 226.894 115.774 225.144 114.824 223.144C113.724 220.844 111.924 219.394 108.874 218.444C107.074 217.844 99.4237 214.494 94.7737 212.244C93.3737 211.544 91.8737 210.994 91.4737 210.994C90.8237 210.994 90.7737 210.294 91.0737 206.644C91.2237 204.244 91.4737 202.244 91.5737 202.094C91.6737 201.994 93.7237 202.294 96.0737 202.744C105.774 204.544 115.924 203.594 125.424 199.994L130.274 198.144L130.574 200.194C130.724 201.344 130.974 204.544 131.174 207.394C131.374 210.194 131.674 212.594 131.824 212.694C132.524 213.144 138.424 209.844 140.874 207.644C142.274 206.394 143.974 204.244 144.674 202.894C145.824 200.644 146.074 200.444 147.274 200.694C148.024 200.844 151.724 201.244 155.524 201.594L162.424 202.194L162.124 203.444C159.574 213.694 148.024 226.744 136.024 232.994C134.274 233.894 132.874 234.894 132.874 235.194C133.024 241.044 134.974 265.694 135.374 266.994C135.874 268.694 136.924 270.694 142.074 279.744C144.674 284.394 145.074 286.594 143.624 288.794C142.374 290.744 140.224 291.344 133.724 291.644C126.724 291.944 126.874 291.894 120.624 298.294C117.224 301.794 115.624 303.044 114.124 303.444C111.524 304.144 110.474 304.094 108.474 303.244Z" fill="#8A7270"/>
<path d="M90.5237 218.994C90.5237 217.194 90.6237 216.494 90.7237 217.394C90.8237 218.244 90.8237 219.744 90.7237 220.644C90.6237 221.494 90.5237 220.794 90.5237 218.994Z" fill="#8A7270"/>
</svg>
