<svg width="945" height="945" viewBox="0 0 945 945" fill="none" xmlns="http://www.w3.org/2000/svg">
<ellipse cx="512.5" cy="646.5" rx="219.5" ry="115.5" fill="#AA5404" fill-opacity="0.17"/>
<ellipse cx="511" cy="623" rx="175" ry="108" fill="#AF4B21"/>
<path d="M336.648 613.658C355.926 661.925 432.933 698 525 698C587.08 698 642.312 681.596 677.617 656.115C654.963 699.561 588.932 731 511 731C414.35 731 336 682.647 336 623C336 619.853 336.221 616.737 336.648 613.658Z" fill="url(#paint0_linear_22_42)"/>
<path d="M662.57 230.731C716.355 161.583 794.069 171.787 828.57 217.231C901.07 312.729 771.069 424.229 773.069 456.231C777.35 524.729 738.496 608.708 646.569 648.23C489.569 715.729 393.966 642.276 328.069 646.731C224.569 653.729 202.069 640.728 166.069 614.229C158.735 610.562 125.069 576.731 123.069 536.731C120.656 488.466 186.069 469.731 235.069 469.731C260.569 425.731 288.569 348.231 395.569 315.731C496.15 285.181 573.569 301.23 624.569 315.23C639.024 319.198 634.57 266.729 662.57 230.731ZM769.629 247.847C767.71 246.58 764.897 246.81 761.693 248.061C758.458 249.325 754.679 251.685 750.691 254.925C742.711 261.408 733.821 271.485 726.695 283.626C712.449 307.897 705.18 340.57 726.601 369.3L726.805 369.574L727.135 369.482C736.291 366.939 745.272 359.197 753.143 348.821C761.024 338.432 767.84 325.34 772.648 311.99C777.455 298.643 780.267 285.004 780.112 273.521C779.956 262.062 776.839 252.611 769.629 247.847Z" fill="url(#paint1_linear_22_42)"/>
<path d="M761.195 416.596C760.618 418.591 743 380.666 727 369.666C727.291 369.572 727.584 369.471 727.877 369.363C757.347 358.493 799.468 274.837 767.784 247.113C768.487 246.47 783.154 243.96 796.619 248.29C806.45 251.452 815.641 258.261 818.288 272.105C831.195 339.596 766.696 397.594 761.195 416.596Z" fill="#AF4921"/>
<mask id="mask0_22_42" style="mask-type:alpha" maskUnits="userSpaceOnUse" x="123" y="180" width="728" height="497">
<path d="M662.565 230.73C716.351 161.582 794.065 171.787 828.565 217.231C901.065 312.729 771.065 424.23 773.065 456.231C777.346 524.729 738.492 608.707 646.565 648.229C489.566 715.729 393.962 642.276 328.065 646.731C224.566 653.73 202.065 640.727 166.065 614.229C158.732 610.563 125.066 576.731 123.065 536.731C120.652 488.466 186.065 469.731 235.065 469.731C260.565 425.731 288.565 348.231 395.565 315.731C496.147 285.181 573.565 301.23 624.565 315.23C639.02 319.198 634.565 266.728 662.565 230.73ZM769.625 247.848C767.706 246.58 764.892 246.81 761.688 248.061C758.454 249.325 754.674 251.685 750.686 254.925C742.707 261.408 733.816 271.486 726.69 283.626C712.445 307.897 705.176 340.571 726.597 369.3L726.801 369.574L727.131 369.482C736.287 366.939 745.268 359.197 753.139 348.821C761.019 338.432 767.835 325.34 772.643 311.99C777.451 298.643 780.263 285.004 780.107 273.521C779.952 262.062 776.835 252.611 769.625 247.848Z" fill="url(#paint2_linear_22_42)"/>
</mask>
<g mask="url(#mask0_22_42)">
<ellipse cx="378.496" cy="510" rx="277.5" ry="193" fill="white" fill-opacity="0.07"/>
</g>
<path d="M662.569 230.73C713.796 164.872 786.728 170.996 823.358 210.99C660.025 200.588 702.989 355.006 665.5 381.499C675.5 509.499 408.5 482.999 389.5 443.999C377.216 479.333 350.536 506.25 318.5 525.071C247.643 598.334 144.921 569.351 123.076 531.53C125.443 487.114 187.87 469.73 235.069 469.73C260.569 425.73 288.57 348.23 395.569 315.73C496.151 285.18 573.569 301.229 624.569 315.229C639.024 319.197 634.57 266.728 662.569 230.73Z" fill="url(#paint3_linear_22_42)"/>
<path d="M316.5 531.5C326.333 518 356.5 490.5 402.5 491.5C450.5 492.543 461.351 507.429 463 516.5C464 522 464.744 532.417 452.5 533C445 533.357 441.167 526 441.5 519.5M351.5 533C359.333 526.5 379.364 514.384 397 516.5C422 519.5 428.571 549.32 443 562C459.5 576.5 500 587.5 519.5 566C533 540 514 525.5 502 533M347 581.5C372.5 581.5 461.603 611.07 545 602.5C671.5 589.5 724 536.5 745.5 509.5M507.5 501.5C498.5 505.167 485.053 514.5 483 534C481.579 547.5 490 555 502 555M557 498.5C565 500.333 581.938 511.5 584 528C585.875 543 572.667 550 566 549.5M565.5 529C559.5 526.5 547.9 525.3 545.5 540.5C543.1 555.7 551.667 565.667 558 568.5C570 573 582.5 570.5 588.5 566.5C608.5 553.167 607.833 530.667 607.5 517C608 506.5 611 483.764 629.5 480.5C647.5 477.324 663.5 482.5 680.5 490C693.798 495.867 710.433 499.146 720.5 496C736.5 491 742.5 471.5 740 459M652.5 517C652 511.5 648.929 502.219 638.5 505C631 507 627.5 516.5 632 530.5C636.5 544.5 650.5 543.5 656.5 542.5C662.5 541.5 667.22 535.561 669.5 531C671.5 527 673 520 672 511M738 422C730.167 414.167 705.5 403 691 417.5C678.99 429.51 700.167 459.5 716.5 471M273.5 468.5C288.167 465.667 308.5 466 332 441.5C347.42 425.423 344.5 396 342 389C337.322 375.901 311.5 383 306.5 391.5M374.5 334L383.5 330.5" stroke="url(#paint4_linear_22_42)" stroke-width="13" stroke-linecap="round"/>
<path d="M298.73 405.307C301.609 404.274 305.089 403.518 308.823 403.98C312.698 404.46 316.391 406.199 319.597 409.404C321.317 411.125 322.344 413.103 322.904 415.131C323.024 422.981 312.982 438.494 305 436V436.002C304.035 433.683 304.467 430.911 306.321 428.988C307.749 427.507 309.359 424.753 310.097 422.004C310.779 419.46 310.345 418.591 310.331 418.526C309.134 417.355 308.113 416.992 307.226 416.882C306.182 416.753 304.839 416.926 303.119 417.543C301.398 418.16 299.624 419.101 297.783 420.184C296.244 421.089 293.994 422.521 292.407 423.314C289.196 424.92 285.292 423.618 283.686 420.407C282.081 417.196 283.382 413.292 286.593 411.686C287.673 411.147 288.835 410.365 291.191 408.978C293.246 407.77 295.852 406.339 298.73 405.307Z" fill="url(#paint5_linear_22_42)"/>
<ellipse cx="374.5" cy="553" rx="9.5" ry="10" fill="#D89B3E"/>
<ellipse cx="408" cy="561.5" rx="10" ry="10.5" fill="#D99C3F"/>
<ellipse cx="532" cy="512.5" rx="9" ry="13.5" transform="rotate(-1.85848 532 512.5)" fill="#D6993C"/>
<ellipse cx="624.037" cy="558.457" rx="7" ry="7.5" transform="rotate(-8.54935 624.037 558.457)" fill="#DA9F43"/>
<circle cx="694" cy="522" r="8" transform="rotate(-6.16072 694 522)" fill="#D28E39"/>
<ellipse cx="718.83" cy="434.832" rx="8.23173" ry="11.3226" transform="rotate(-62.8898 718.83 434.832)" fill="#CD8F38"/>
<circle cx="670" cy="458" r="10" fill="#D1913B"/>
<ellipse cx="698.5" cy="387.5" rx="10.5" ry="8.5" fill="#CF933C"/>
<ellipse cx="362.055" cy="464.1" rx="15.0803" ry="10" transform="rotate(-37.3652 362.055 464.1)" fill="#DCA241"/>
<ellipse cx="349" cy="355.5" rx="9" ry="8.5" fill="#DDA33F"/>
<ellipse cx="511" cy="389.501" rx="117" ry="58.5" fill="#6B3B25"/>
<path d="M511 331.001C575.617 331.001 628 357.192 628 389.501C628 393.969 626.996 398.319 625.099 402.501C613.275 376.449 566.681 357.001 511 357.001C455.319 357.001 408.724 376.449 396.9 402.501C395.003 398.32 394 393.969 394 389.501C394 357.192 446.383 331.001 511 331.001Z" fill="url(#paint6_linear_22_42)"/>
<ellipse cx="213.5" cy="520" rx="54.5" ry="28" fill="#6B3D25"/>
<path d="M213.5 492C243.6 492 268 504.536 268 520C268 525.052 265.395 529.789 260.84 533.881C254.562 522.377 235.297 514 212.5 514C190.516 514 171.816 521.79 164.88 532.662C161.12 528.86 159 524.558 159 520C159 504.536 183.4 492 213.5 492Z" fill="url(#paint7_linear_22_42)" fill-opacity="0.5"/>
<ellipse cx="210" cy="385" rx="115" ry="140" fill="url(#paint8_radial_22_42)"/>
<path d="M170.74 408C149.027 459.45 154.24 505.5 213.617 517.064C281.24 502.5 269.285 443.082 248.117 392.564C237.409 367.007 220.937 338.761 218.74 336.564C217.24 335.064 215.601 334.064 213.74 334.064C211.879 334.064 209.372 333.53 207.24 335.564C199.059 343.367 181.523 382.451 170.74 408Z" fill="url(#paint9_linear_22_42)"/>
<path d="M191.5 442C181.534 466.084 169 497 213.043 510C253.423 499.221 247.071 470.424 235.116 442C229.068 427.621 218.241 410.768 217 409.5C216.153 408.635 214.222 407.635 213.171 407.635C212.12 407.635 210.204 407.827 209 409C204.38 413.502 197.5 427.5 191.5 442Z" fill="url(#paint10_linear_22_42)"/>
<rect x="202.74" y="489" width="20" height="43" rx="10" fill="#252523"/>
<defs>
<linearGradient id="paint0_linear_22_42" x1="336" y1="731" x2="686" y2="731" gradientUnits="userSpaceOnUse">
<stop stop-color="#C4592C"/>
<stop offset="1" stop-color="#C75B2C"/>
</linearGradient>
<linearGradient id="paint1_linear_22_42" x1="486.792" y1="181" x2="486.792" y2="676.901" gradientUnits="userSpaceOnUse">
<stop stop-color="#CF6233"/>
<stop offset="1" stop-color="#C85C2E"/>
</linearGradient>
<linearGradient id="paint2_linear_22_42" x1="486.788" y1="181" x2="486.788" y2="676.901" gradientUnits="userSpaceOnUse">
<stop stop-color="#CF6233"/>
<stop offset="1" stop-color="#C85C2E"/>
</linearGradient>
<linearGradient id="paint3_linear_22_42" x1="278.5" y1="453" x2="796.5" y2="419.5" gradientUnits="userSpaceOnUse">
<stop stop-color="#E07E47"/>
<stop offset="0.229339" stop-color="#E67D4D"/>
<stop offset="1" stop-color="#E77D4B"/>
</linearGradient>
<linearGradient id="paint4_linear_22_42" x1="267.5" y1="504" x2="770.5" y2="467" gradientUnits="userSpaceOnUse">
<stop offset="0.615385" stop-color="#D99C40"/>
<stop offset="1" stop-color="#D29340"/>
</linearGradient>
<linearGradient id="paint5_linear_22_42" x1="250.592" y1="550.075" x2="991.968" y2="498.625" gradientUnits="userSpaceOnUse">
<stop stop-color="#D99C40"/>
<stop offset="1" stop-color="#D29340"/>
</linearGradient>
<linearGradient id="paint6_linear_22_42" x1="394" y1="366.751" x2="628" y2="366.751" gradientUnits="userSpaceOnUse">
<stop stop-color="#BD592E"/>
<stop offset="1" stop-color="#BE5A2E"/>
</linearGradient>
<linearGradient id="paint7_linear_22_42" x1="213.5" y1="492" x2="213.5" y2="533.881" gradientUnits="userSpaceOnUse">
<stop stop-color="#BB582C"/>
<stop offset="1" stop-color="#BB5B30"/>
</linearGradient>
<radialGradient id="paint8_radial_22_42" cx="0" cy="0" r="1" gradientUnits="userSpaceOnUse" gradientTransform="translate(210 385) rotate(90) scale(140 115)">
<stop offset="0.389423" stop-color="#FFD879" stop-opacity="0.5"/>
<stop offset="1" stop-color="white" stop-opacity="0.05"/>
</radialGradient>
<linearGradient id="paint9_linear_22_42" x1="212.861" y1="334" x2="212.861" y2="517.064" gradientUnits="userSpaceOnUse">
<stop offset="0.615385" stop-color="#F48D1E"/>
<stop offset="1" stop-color="#F1A842"/>
</linearGradient>
<linearGradient id="paint10_linear_22_42" x1="212.616" y1="407" x2="212.616" y2="510" gradientUnits="userSpaceOnUse">
<stop stop-color="#FFD879"/>
<stop offset="1" stop-color="#F9DA80"/>
</linearGradient>
</defs>
</svg>
