<svg width="728" height="550" viewBox="0 0 728 550" fill="none" xmlns="http://www.w3.org/2000/svg">
<path d="M213.643 432.658C232.92 480.925 309.928 517 401.995 517C464.075 517 519.307 500.596 554.612 475.115C550.73 482.559 545.574 489.651 539.303 496.292C539.266 496.332 539.229 496.371 539.192 496.41C536.367 499.393 533.318 502.285 530.057 505.077C530.017 505.112 529.977 505.147 529.936 505.182C527.976 506.856 525.939 508.494 523.83 510.095C523.794 510.122 523.757 510.149 523.721 510.176C522.347 511.217 520.942 512.242 519.507 513.25C519.079 513.551 518.647 513.851 518.213 514.149C516.371 515.414 514.481 516.653 512.544 517.864C512.5 517.891 512.455 517.92 512.411 517.948C510.934 518.869 509.43 519.774 507.9 520.662C506.878 521.256 505.845 521.842 504.8 522.42C503.318 523.241 501.812 524.046 500.285 524.835C499.162 525.415 498.028 525.987 496.881 526.55C496.248 526.861 495.612 527.17 494.971 527.476C493.354 528.248 491.713 529.002 490.051 529.74C488.982 530.214 487.905 530.682 486.818 531.142C485.558 531.675 484.287 532.197 483.003 532.71C481.951 533.131 480.891 533.545 479.823 533.952C478.477 534.465 477.119 534.967 475.75 535.458C474.671 535.845 473.584 536.224 472.491 536.597C471.12 537.064 469.738 537.521 468.345 537.966C467.286 538.305 466.221 538.637 465.149 538.962C463.697 539.403 462.234 539.832 460.759 540.248C460.226 540.399 459.692 540.547 459.156 540.695C456.401 541.452 453.608 542.168 450.78 542.839C450.374 542.935 449.967 543.031 449.56 543.125C430.409 547.568 409.662 550 387.995 550C291.345 550 212.995 501.647 212.995 442C212.995 440.354 213.057 438.717 213.175 437.089C213.284 435.604 213.439 434.127 213.643 432.658Z" fill="white"/>
<path d="M361.199 148.511C362.02 148.407 362.771 148.989 362.875 149.811C362.979 150.633 362.397 151.383 361.575 151.488C361.278 151.525 360.98 151.565 360.684 151.604C309.24 157.754 270.995 180.894 270.994 208.5C270.994 212.768 271.911 216.928 273.647 220.936C273.892 221.614 274.164 222.284 274.463 222.946L275.082 224.312L272.349 225.549L271.731 224.183C265.382 210.162 270.095 193.362 285.084 179.131C300.079 164.895 325.486 153.038 361.199 148.511ZM387.994 150C452.612 150 504.994 176.192 504.994 208.5C504.994 212.969 503.991 217.319 502.093 221.5C490.269 195.449 443.675 176 387.994 176C332.314 176 285.718 195.449 273.895 221.5C273.81 221.313 273.728 221.124 273.647 220.936C269.26 208.83 273.508 194.258 287.15 181.307C301.428 167.751 325.872 156.159 360.684 151.604C369.446 150.556 378.591 150 387.994 150Z" fill="white"/>
<path d="M539.565 49.7305C593.351 -19.4174 671.064 -9.2128 705.565 36.2314C778.064 131.729 648.065 243.229 650.065 275.231C654.345 343.729 615.491 427.707 523.565 467.229C366.566 534.729 270.962 461.276 205.065 465.731C101.566 472.73 79.0644 459.727 43.0649 433.229C35.7317 429.563 2.0653 395.731 0.0649414 355.731C-1.51428 324.144 25.958 305.205 58.8677 295.888C58.8694 302.465 60.5396 308.738 64.9341 314.264C47.7169 318.969 35.9949 328.282 35.9946 339C35.9946 339.134 35.9968 339.268 36.0005 339.401C36.0011 339.424 36.0017 339.447 36.0024 339.47C36.0056 339.569 36.0099 339.668 36.0151 339.768C36.0184 339.83 36.0218 339.893 36.0259 339.956C36.03 340.02 36.0355 340.084 36.0405 340.147C36.0448 340.202 36.0493 340.256 36.0542 340.311C36.062 340.398 36.0712 340.485 36.0806 340.572C36.0861 340.624 36.0901 340.675 36.0962 340.727C36.1043 340.795 36.1144 340.864 36.1235 340.933C36.1329 341.003 36.1424 341.074 36.1528 341.145C36.1897 341.394 36.2322 341.644 36.2817 341.892C36.2922 341.944 36.3039 341.996 36.3149 342.049C36.3314 342.127 36.348 342.205 36.3657 342.283C36.3747 342.323 36.3838 342.362 36.3931 342.401C36.417 342.503 36.4423 342.604 36.4683 342.705C36.4757 342.734 36.4831 342.763 36.4907 342.792C36.6641 343.45 36.8823 344.101 37.1431 344.743C37.1579 344.78 37.1729 344.816 37.188 344.853C37.2268 344.946 37.2665 345.04 37.3071 345.134C37.3198 345.163 37.3323 345.193 37.3452 345.222C37.6766 345.972 38.068 346.71 38.5142 347.437C38.6174 347.605 38.7223 347.773 38.8315 347.939C38.8555 347.976 38.8805 348.012 38.9048 348.049C38.9956 348.186 39.0893 348.321 39.1841 348.457C39.2381 348.534 39.2919 348.612 39.3472 348.689C39.4551 348.84 39.5665 348.989 39.6792 349.138C39.7445 349.224 39.8105 349.311 39.8774 349.396C39.9966 349.549 40.1174 349.703 40.2417 349.854C40.2825 349.904 40.3244 349.953 40.3657 350.003C40.4717 350.13 40.5804 350.257 40.6899 350.383C40.7468 350.448 40.8031 350.515 40.8608 350.58C40.9844 350.72 41.1109 350.858 41.2388 350.996C41.3195 351.083 41.4005 351.171 41.4829 351.258C41.4976 351.273 41.5121 351.289 41.5269 351.305L41.8745 351.662C50.8724 360.763 69.2655 367 90.4946 367C110.898 367 128.68 361.238 138.021 352.71C138.114 352.625 138.208 352.54 138.299 352.454C138.399 352.36 138.498 352.266 138.596 352.172C138.688 352.084 138.778 351.996 138.868 351.907C139.017 351.76 139.164 351.612 139.308 351.463C139.367 351.402 139.425 351.342 139.483 351.281C139.577 351.182 139.671 351.082 139.763 350.982C139.858 350.88 139.951 350.777 140.043 350.674C140.152 350.553 140.258 350.43 140.363 350.308C140.44 350.218 140.518 350.128 140.593 350.038C140.674 349.941 140.754 349.844 140.833 349.746C140.908 349.653 140.983 349.559 141.057 349.465C141.166 349.326 141.272 349.187 141.376 349.048C141.441 348.962 141.504 348.877 141.567 348.791C141.64 348.691 141.712 348.59 141.783 348.489C141.892 348.333 141.999 348.177 142.103 348.02C142.15 347.949 142.196 347.878 142.242 347.807C142.311 347.699 142.378 347.591 142.445 347.483C142.771 346.956 143.07 346.423 143.335 345.883C143.346 345.861 143.357 345.839 143.368 345.816C143.57 345.4 143.754 344.98 143.92 344.557C143.93 344.531 143.94 344.505 143.95 344.479C143.991 344.371 144.032 344.263 144.072 344.154C144.087 344.111 144.103 344.068 144.118 344.025C144.215 343.748 144.306 343.47 144.388 343.19C144.401 343.147 144.412 343.103 144.424 343.06C144.455 342.95 144.486 342.84 144.514 342.73C144.518 342.715 144.522 342.699 144.526 342.684C144.636 342.255 144.727 341.823 144.798 341.389C144.804 341.353 144.809 341.317 144.815 341.281C144.884 340.844 144.933 340.404 144.962 339.962C144.965 339.927 144.966 339.892 144.968 339.856C144.975 339.74 144.981 339.623 144.985 339.506C144.986 339.478 144.986 339.449 144.987 339.421C144.991 339.281 144.995 339.14 144.995 339C144.994 328.167 133.02 318.773 115.5 314.117C122.905 304.193 122.196 291.333 118.204 277.692C142.491 232.744 174.034 164.659 272.565 134.731C373.146 104.181 450.565 120.231 501.565 134.23C516.019 138.196 511.565 85.7277 539.565 49.7305ZM626.543 323.415C623.735 321.179 619.646 321.643 617.41 324.451C596.86 350.258 545.882 402.234 421.331 415.034C380.53 419.227 338.105 414.1 302.411 407.812C284.562 404.669 268.573 401.269 255.232 398.611C242.206 396.016 231.151 394 223.995 394C220.405 394 217.495 396.91 217.495 400.5C217.495 404.09 220.405 407 223.995 407C229.589 407 239.234 408.68 252.692 411.361C265.836 413.98 282.117 417.438 300.156 420.615C336.236 426.971 380.062 432.343 422.659 427.966C551.106 414.766 605.13 360.742 627.58 332.549C629.815 329.741 629.351 325.651 626.543 323.415ZM274.769 329.046C264.322 327.792 253.665 330.764 244.967 334.562C236.197 338.392 228.713 343.373 224.344 346.998C221.582 349.29 221.2 353.388 223.493 356.15C225.785 358.913 229.883 359.294 232.645 357.002C236.11 354.127 242.557 349.8 250.169 346.476C257.854 343.12 266.032 341.091 273.22 341.954C282.874 343.113 289.349 349.343 295.628 358.34C298.894 363.019 301.486 367.478 304.801 372.529C307.898 377.249 311.407 382.107 315.704 385.883C325.069 394.113 340.586 400.933 356.293 402.947C371.974 404.957 389.544 402.339 401.309 389.367L401.875 388.743L402.263 387.995C409.807 373.466 408.997 360.483 402.461 351.978C396.124 343.73 384.741 340.744 375.549 346.488C372.505 348.391 371.58 352.401 373.483 355.445C375.386 358.489 379.396 359.414 382.44 357.512C385.248 355.757 389.366 356.271 392.153 359.898C394.684 363.192 396.591 370.209 391.112 381.237C383.345 389.283 371.188 391.75 357.946 390.053C344.404 388.317 331.42 382.387 324.286 376.117C321.368 373.553 318.644 369.928 315.669 365.396C312.913 361.197 309.594 355.635 306.289 350.899C299.426 341.067 290.115 330.888 274.769 329.046ZM623.369 276.726C622.665 273.206 619.24 270.922 615.72 271.626C612.2 272.33 609.917 275.754 610.621 279.274C611.584 284.09 610.932 290.713 608.257 296.639C605.619 302.485 601.34 306.988 595.556 308.796C591.913 309.934 586.394 310.053 579.757 308.966C573.257 307.901 566.3 305.78 560.119 303.053C542.852 295.435 525.348 289.573 505.365 293.099C493.156 295.253 486.373 303.939 482.756 312.509C479.187 320.966 478.265 330.18 478.002 335.69L477.991 335.925L477.997 336.158C478.342 350.322 478.551 368.984 461.889 380.092C457.743 382.856 447.569 385.179 437.505 381.497C433.724 379.702 427.015 372.553 428.916 360.514C429.823 354.77 432.024 353.662 433.159 353.292C435.041 352.679 437.728 353.056 439.995 354C443.308 355.38 447.114 353.813 448.495 350.5C449.875 347.186 448.308 343.381 444.995 342C441.261 340.444 435.148 338.971 429.13 340.933C422.365 343.138 417.567 349.031 416.074 358.486C413.199 376.692 423.425 389.445 432.34 393.434L432.524 393.516L432.712 393.586C446.574 398.784 461.278 396.123 469.1 390.908C492.293 375.446 491.327 349.338 490.999 336.089C491.25 331.103 492.092 323.823 494.733 317.564C497.366 311.326 501.334 307.011 507.625 305.901C523.641 303.075 538.138 307.565 554.871 314.947C561.986 318.087 569.997 320.539 577.655 321.794C585.176 323.026 593.009 323.211 599.433 321.204C609.649 318.012 616.371 310.264 620.107 301.986C623.807 293.787 624.905 284.41 623.369 276.726ZM284.995 370C279.472 370 274.995 374.701 274.995 380.5C274.995 386.299 279.472 391 284.995 391C290.517 391 294.995 386.299 294.995 380.5C294.995 374.701 290.517 370 284.995 370ZM507.954 376.417C507.338 372.321 503.739 369.466 499.917 370.041C496.094 370.616 493.494 374.402 494.11 378.498C494.726 382.594 498.324 385.449 502.147 384.874C505.97 384.299 508.569 380.513 507.954 376.417ZM251.495 362C246.248 362 241.995 366.477 241.995 372C241.995 377.523 246.248 382 251.495 382C256.741 382 260.995 377.523 260.995 372C260.995 366.477 256.741 362 251.495 362ZM390.514 318.048C389.16 314.724 385.367 313.126 382.042 314.48C371.752 318.673 355.924 329.582 353.531 352.319C352.662 360.576 354.765 367.859 359.778 373.069C364.714 378.2 371.683 380.5 378.995 380.5C382.584 380.5 385.495 377.59 385.495 374C385.495 370.41 382.584 367.5 378.995 367.5C374.307 367.5 371.065 366.05 369.146 364.056C367.304 362.141 365.907 358.923 366.458 353.681C368.17 337.419 379.237 329.661 386.947 326.52C390.271 325.165 391.868 321.372 390.514 318.048ZM435.447 311.164C431.948 310.362 428.461 312.549 427.659 316.048C426.857 319.547 429.043 323.034 432.542 323.836C435.176 324.44 440.429 327.006 445.306 331.521C450.103 335.961 453.765 341.571 454.544 347.807C455.197 353.026 453.302 356.491 450.815 358.763C448.002 361.332 444.735 362.112 443.481 362.019C439.901 361.75 436.782 364.434 436.513 368.014C436.245 371.593 438.929 374.713 442.508 374.981C447.921 375.387 454.592 372.918 459.581 368.362C464.895 363.509 468.667 355.973 467.445 346.193C466.162 335.93 460.323 327.706 454.136 321.979C448.029 316.327 440.813 312.394 435.447 311.164ZM523.996 317.738C520.831 316.724 517.39 316.768 513.82 317.72C507.509 319.403 503.266 324.264 501.495 330.464C499.781 336.463 500.307 343.716 502.806 351.489C505.807 360.825 512.285 365.486 518.896 367.375C525.102 369.148 531.247 368.464 534.563 367.911C539.335 367.116 543.171 364.451 545.949 361.718C548.757 358.954 550.904 355.715 552.308 352.907C554.981 347.561 556.562 339.25 555.455 329.282C555.058 325.714 551.845 323.144 548.277 323.54C544.709 323.936 542.138 327.15 542.535 330.718C543.427 338.749 542.008 344.439 540.681 347.093C539.805 348.845 538.452 350.856 536.831 352.452C535.178 354.078 533.654 354.883 532.426 355.088C529.743 355.535 525.887 355.851 522.468 354.875C519.454 354.014 516.682 352.174 515.183 347.511C513.182 341.285 513.209 336.786 513.995 334.035C514.723 331.486 515.98 330.597 517.169 330.28C518.813 329.842 519.666 330.003 520.027 330.118C520.379 330.231 520.74 330.454 521.148 330.962C522.139 332.197 522.824 334.424 523.021 336.589C523.346 340.164 526.509 342.799 530.083 342.474C533.658 342.148 536.293 338.986 535.968 335.411C535.665 332.076 534.565 326.912 531.289 322.827C529.562 320.675 527.168 318.755 523.996 317.738ZM279.636 304.002C230.9 302.943 198.919 332.013 188.241 346.673C186.127 349.574 186.766 353.64 189.667 355.754C192.569 357.867 196.635 357.229 198.749 354.327C207.737 341.987 236.09 316.058 279.353 316.998C302.813 317.508 316.332 321.402 323.955 325.663C331.342 329.793 333.154 334.214 333.599 336.663C334.072 339.264 334.189 341.754 333.6 343.379C333.37 344.013 333.086 344.365 332.716 344.623C332.311 344.907 331.327 345.406 329.185 345.508C327.95 345.566 327.112 345.12 326.354 344.055C325.456 342.792 324.884 340.817 324.986 338.833C325.17 335.248 322.413 332.193 318.828 332.009C315.243 331.825 312.187 334.582 312.003 338.167C311.772 342.682 312.95 347.638 315.76 351.589C318.71 355.737 323.54 358.791 329.804 358.493C333.784 358.304 337.299 357.282 340.167 355.276C343.069 353.246 344.832 350.538 345.822 347.809C347.672 342.705 346.917 337.236 346.39 334.337C345.186 327.715 340.747 320.158 330.297 314.316C320.083 308.606 304.176 304.535 279.636 304.002ZM578.949 340.142C578.475 335.749 574.529 332.572 570.136 333.046C565.744 333.52 562.567 337.466 563.041 341.858C563.515 346.251 567.46 349.428 571.853 348.954C576.246 348.48 579.423 344.534 578.949 340.142ZM408.557 318.007C403.589 318.168 399.758 324.34 400 331.792C400.241 339.244 404.464 345.154 409.432 344.993C414.4 344.832 418.231 338.66 417.99 331.208C417.748 323.757 413.525 317.846 408.557 318.007ZM595.382 224.025C585.234 221.807 572.808 222.494 563.399 231.903C558.547 236.755 557.46 243.132 558.16 249.07C558.849 254.918 561.302 260.997 564.442 266.613C570.716 277.836 580.733 288.964 589.752 295.314C592.688 297.381 596.742 296.677 598.809 293.742C600.876 290.807 600.172 286.752 597.237 284.686C589.924 279.536 581.184 269.919 575.79 260.27C573.095 255.45 571.485 251.06 571.071 247.548C570.668 244.127 571.438 242.249 572.591 241.096C577.682 236.006 584.839 235.027 592.607 236.725C600.482 238.446 607.453 242.65 610.399 245.596C612.937 248.134 617.053 248.134 619.591 245.596C622.129 243.057 622.129 238.942 619.591 236.403C614.704 231.516 605.424 226.221 595.382 224.025ZM251.035 273.948C247.683 269.559 239.599 270.098 232.98 275.152C226.361 280.207 223.712 287.863 227.064 292.252C230.416 296.641 238.498 296.102 245.118 291.048C251.737 285.993 254.386 278.338 251.035 273.948ZM214.217 195.497C209.759 194.023 204.816 194.031 200.36 194.729C195.843 195.436 191.33 196.928 187.503 198.91C183.849 200.803 180.044 203.546 177.892 207.204C176.072 210.298 177.105 214.282 180.199 216.103C183.293 217.922 187.277 216.89 189.097 213.796C189.445 213.204 190.743 211.872 193.483 210.453C196.05 209.123 199.222 208.065 202.371 207.572C205.579 207.07 208.282 207.228 210.137 207.841C211.8 208.391 212.51 209.169 212.874 210.187C213.72 212.557 215.07 220.67 214.239 230.287C213.413 239.843 210.544 249.495 204.303 256.001C193.277 267.497 183.213 272.97 174.349 275.968C165.029 279.121 157.529 279.521 149.262 281.118C145.738 281.799 143.432 285.208 144.113 288.732C144.794 292.257 148.203 294.562 151.727 293.882C158.127 292.646 168.128 291.796 178.515 288.282C189.36 284.614 201.213 278.003 213.686 264.999C222.865 255.429 226.247 242.33 227.191 231.406C228.13 220.544 226.769 210.444 225.116 205.813C223.14 200.282 218.867 197.034 214.217 195.497ZM546.995 267C541.472 267 536.995 271.477 536.995 277C536.995 282.523 541.472 287 546.995 287C552.517 287 556.995 282.523 556.995 277C556.995 271.477 552.517 267 546.995 267ZM387.995 150.001C323.378 150.001 270.995 176.192 270.995 208.501C270.995 240.809 323.378 267.001 387.995 267.001C452.611 267.001 504.994 240.809 504.995 208.501C504.995 176.192 452.612 150.001 387.995 150.001ZM599.576 246.505C594.009 243.655 587.817 244.626 585.746 248.673C583.674 252.72 586.507 258.311 592.073 261.16C597.639 264.01 603.831 263.039 605.903 258.992C607.975 254.945 605.142 249.355 599.576 246.505ZM185.818 222.98C182.083 222.518 178.604 223.274 175.725 224.307C172.847 225.339 170.241 226.77 168.186 227.979C165.83 229.365 164.667 230.147 163.587 230.687C160.377 232.292 159.076 236.197 160.681 239.407C162.287 242.618 166.191 243.92 169.402 242.314C170.989 241.521 173.239 240.089 174.778 239.184C176.619 238.101 178.393 237.16 180.114 236.543C181.834 235.926 183.177 235.753 184.221 235.882C185.108 235.992 186.129 236.356 187.326 237.526C187.341 237.593 187.773 238.463 187.091 241.004C186.354 243.753 184.744 246.507 183.316 247.988C181.461 249.912 181.029 252.683 181.995 255.002V255C189.976 257.494 200.019 241.981 199.899 234.131C199.339 232.103 198.312 230.125 196.591 228.404C193.386 225.199 189.693 223.46 185.818 222.98ZM575.495 198C569.696 198 564.995 201.806 564.995 206.5C564.995 211.194 569.696 215 575.495 215C581.293 215 585.994 211.194 585.995 206.5C585.995 201.806 581.293 198 575.495 198ZM644.786 66.1191C643.077 65.7927 640.982 66.1654 638.688 67.0615C635.453 68.3251 631.673 70.685 627.686 73.9248C619.706 80.4085 610.816 90.4858 603.69 102.626C589.444 126.897 582.175 159.571 603.596 188.3L603.8 188.574L604.13 188.482C604.876 188.275 605.619 188.03 606.362 187.755C635.729 174.708 675.926 93.3858 644.786 66.1191ZM225.995 166C221.024 166 216.995 169.806 216.995 174.5C216.995 179.194 221.024 183 225.995 183C230.965 183 234.994 179.194 234.995 174.5C234.995 169.806 230.965 166 225.995 166ZM266.552 147.145C265.251 143.799 261.485 142.142 258.139 143.442L249.139 146.942C245.794 148.243 244.136 152.01 245.437 155.355C246.738 158.701 250.504 160.359 253.85 159.058L262.85 155.558C266.196 154.256 267.853 150.49 266.552 147.145Z" fill="white"/>
<path d="M84.2349 154.564C86.3673 152.53 88.874 153.064 90.7349 153.064C92.596 153.064 94.2349 154.064 95.7349 155.564C97.9333 157.763 114.403 186.008 125.112 211.564C146.279 262.082 158.235 321.5 90.6118 336.064C31.235 324.5 26.0216 278.45 47.7349 227C58.5175 201.451 76.0535 162.367 84.2349 154.564ZM90.1655 226.635C89.1146 226.635 87.1989 226.827 85.9946 228C81.3742 232.502 74.4945 246.5 68.4946 261C58.5289 285.084 45.9948 316 90.0376 329C130.417 318.221 124.065 289.424 112.111 261C106.063 246.621 95.2362 229.769 93.9946 228.5C93.1475 227.635 91.2167 226.635 90.1655 226.635Z" fill="white"/>
<rect x="79.9946" y="308" width="20" height="43" rx="10" fill="white"/>
</svg>
