<?xml version="1.0" standalone="no"?>
<!DOCTYPE svg PUBLIC "-//W3C//DTD SVG 20010904//EN"
 "http://www.w3.org/TR/2001/REC-SVG-20010904/DTD/svg10.dtd">
<svg version="1.0" xmlns="http://www.w3.org/2000/svg"
 width="512.000000pt" height="512.000000pt" viewBox="0 0 512.000000 512.000000"
 preserveAspectRatio="xMidYMid meet">

<g transform="translate(0.000000,512.000000) scale(0.100000,-0.100000)"
fill="#000000" stroke="none">
<path d="M1151 4309 c-126 -14 -312 -54 -436 -93 -148 -47 -194 -87 -228 -197
-4 -12 -24 -18 -79 -23 -45 -4 -90 -15 -118 -29 -51 -26 -104 -91 -120 -145
-6 -25 -10 -488 -10 -1388 0 -1471 -3 -1394 55 -1470 13 -17 48 -44 77 -58
l52 -26 934 0 933 0 33 -25 c67 -51 90 -55 316 -55 226 0 249 4 316 55 l33 25
933 0 934 0 51 25 c28 15 63 41 78 60 58 77 55 -1 55 1469 0 900 -4 1363 -10
1388 -16 54 -69 119 -120 145 -28 14 -73 25 -118 29 -55 5 -75 11 -79 23 -34
110 -80 150 -228 197 -217 69 -450 104 -689 104 -348 0 -687 -79 -1006 -235
l-151 -74 -127 63 c-213 107 -422 176 -657 217 -138 24 -483 34 -624 18z m489
-159 c246 -30 493 -103 703 -209 l132 -66 3 -1233 2 -1232 -71 36 c-322 162
-711 244 -1099 231 -187 -6 -304 -22 -465 -63 -126 -33 -154 -33 -182 1 l-23
26 0 1180 c0 1157 0 1179 20 1199 35 35 264 97 460 125 116 16 405 19 520 5z
m2350 -5 c203 -27 434 -89 470 -125 20 -20 20 -42 20 -1198 0 -1063 -2 -1180
-16 -1200 -28 -41 -52 -42 -179 -11 -210 51 -319 63 -560 64 -164 0 -250 -5
-335 -18 -232 -37 -451 -103 -648 -197 l-102 -49 2 1232 3 1232 131 66 c201
101 458 179 689 208 113 14 410 12 525 -4z m-3508 -1427 l3 -1123 28 -48 c18
-30 47 -60 75 -78 40 -25 48 -36 59 -82 19 -74 59 -126 122 -159 l53 -28 669
0 669 0 0 -80 0 -80 -894 0 c-865 0 -895 1 -917 19 l-24 19 -3 1355 -2 1355
31 26 c24 20 41 26 80 26 l49 0 2 -1122z m4287 1096 l31 -26 -2 -1355 -3
-1355 -24 -19 c-22 -18 -52 -19 -917 -19 l-894 0 0 80 0 80 669 0 669 0 53 28
c63 33 103 85 122 159 11 46 19 57 59 82 28 18 57 48 75 78 l28 48 3 1123 2
1122 49 0 c39 0 56 -6 80 -26z m-3054 -2319 c126 -20 232 -46 370 -93 l110
-37 -669 -3 c-720 -2 -705 -3 -719 48 -4 16 1 23 20 31 42 16 267 59 360 69
119 12 406 4 528 -15z m2351 -5 c66 -11 149 -28 185 -38 53 -15 63 -21 61 -37
-2 -11 -12 -28 -24 -37 -19 -17 -67 -18 -689 -18 -368 0 -669 2 -669 4 0 8
214 75 317 100 56 13 143 29 195 35 51 6 107 13 123 15 75 11 386 -4 501 -24z"/>
</g>
</svg>
