<svg width="30" height="35" viewBox="0 0 30 35" fill="none" xmlns="http://www.w3.org/2000/svg">
<circle cx="15" cy="15" r="14" fill="#63C9F9"/>
<path d="M8.04383 33.3268L2.5 21.5H27.5L21.9543 30.6108C21.2412 31.7823 19.5874 31.9049 18.7094 30.8513L18 30H13L11.7117 33.2207C11.0619 34.8453 8.78648 34.9112 8.04383 33.3268Z" fill="#63C9F9"/>
<circle cx="15" cy="15" r="11" fill="#1CB0F6"/>
<path d="M21.75 6.19376C22.1405 5.80323 22.1435 5.16521 21.7132 4.81894C19.8086 3.28601 17.3308 2.52916 14.6987 2.69889C11.7089 2.89169 8.76502 4.26428 6.51458 6.51472C4.26414 8.76515 2.89155 11.7091 2.69875 14.6989C2.52902 17.3309 3.28587 19.8087 4.8188 21.7134C5.16507 22.1436 5.80309 22.1406 6.19362 21.7501L13.9718 13.9719L21.75 6.19376Z" fill="white" fill-opacity="0.25"/>
</svg>
